<svg width="222" height="150" viewBox="0 0 222 150" fill="none" xmlns="http://www.w3.org/2000/svg">
<line x1="9.9" y1="129.5" x2="9.9" y2="20.5" stroke="#C2C1C1" stroke-width="0.2"/>
<path d="M21.1094 18.1875V17.5625L26.1406 15V16L22.2813 17.8594L22.3125 17.7969V17.9531L22.2813 17.8906L26.1406 19.75V20.75L21.1094 18.1875ZM106.986 18.1875L101.955 20.75V19.75L105.814 17.8906L105.783 17.9531V17.7969L105.814 17.8594L101.955 16V15L106.986 17.5625V18.1875ZM27.2969 31.1875V30.5625L32.3281 28V29L28.4688 30.8594L28.5 30.7969V30.9531L28.4688 30.8906L32.3281 32.75V33.75L27.2969 31.1875ZM134.263 38.625L131.685 48.2031H130.841L133.419 38.625H134.263ZM140.652 44.1875L135.621 46.75V45.75L139.48 43.8906L139.449 43.9531V43.7969L139.48 43.8594L135.621 42V41L140.652 43.5625V44.1875ZM27.2969 57.1875V56.5625L32.3281 54V55L28.4688 56.8594L28.5 56.7969V56.9531L28.4688 56.8906L32.3281 58.75V59.75L27.2969 57.1875ZM78.457 116.625L75.8789 126.203H75.0352L77.6133 116.625H78.457ZM84.8467 122.188L79.8154 124.75V123.75L83.6748 121.891L83.6436 121.953V121.797L83.6748 121.859L79.8154 120V119L84.8467 121.562V122.188ZM21.1094 135.188V134.562L26.1406 132V133L22.2813 134.859L22.3125 134.797V134.953L22.2813 134.891L26.1406 136.75V137.75L21.1094 135.188ZM30.9229 129.625L28.3447 139.203H27.501L30.0791 129.625H30.9229ZM65.8437 135.188L60.8125 137.75V136.75L64.6719 134.891L64.6406 134.953V134.797L64.6719 134.859L60.8125 133V132L65.8437 134.562V135.188Z" fill="#8F8F91"/>
<path d="M33.001 15L30.7822 21H29.8447L27.626 15H28.626L30.2822 19.7812H30.3447L32.001 15H33.001ZM34.2178 21V15H35.1396V21H34.2178ZM34.6865 14C34.5068 14 34.3519 13.9388 34.2217 13.8164C34.0941 13.694 34.0303 13.5469 34.0303 13.375C34.0303 13.2031 34.0941 13.056 34.2217 12.9336C34.3519 12.8112 34.5068 12.75 34.6865 12.75C34.8662 12.75 35.0199 12.8112 35.1475 12.9336C35.2777 13.056 35.3428 13.2031 35.3428 13.375C35.3428 13.5469 35.2777 13.694 35.1475 13.8164C35.0199 13.9388 34.8662 14 34.6865 14ZM39.0938 21.125C38.5938 21.125 38.1523 20.9987 37.7695 20.7461C37.3867 20.4909 37.0872 20.1315 36.8711 19.668C36.6549 19.2018 36.5469 18.651 36.5469 18.0156C36.5469 17.3854 36.6549 16.8385 36.8711 16.375C37.0872 15.9115 37.388 15.5534 37.7734 15.3008C38.1589 15.0482 38.6042 14.9219 39.1094 14.9219C39.5 14.9219 39.8086 14.987 40.0352 15.1172C40.2643 15.2448 40.4388 15.3906 40.5586 15.5547C40.681 15.7161 40.776 15.849 40.8438 15.9531H40.9219V13H41.8438V21H40.9531V20.0781H40.8438C40.776 20.1875 40.6797 20.3255 40.5547 20.4922C40.4297 20.6562 40.2513 20.8034 40.0195 20.9336C39.7878 21.0612 39.4792 21.125 39.0938 21.125ZM39.2188 20.2969C39.5885 20.2969 39.901 20.2005 40.1563 20.0078C40.4115 19.8125 40.6055 19.543 40.7383 19.1992C40.8711 18.8529 40.9375 18.4531 40.9375 18C40.9375 17.5521 40.8724 17.1602 40.7422 16.8242C40.612 16.4857 40.4193 16.2227 40.1641 16.0352C39.9089 15.8451 39.5938 15.75 39.2188 15.75C38.8281 15.75 38.5026 15.8503 38.2422 16.0508C37.9844 16.2487 37.7904 16.5182 37.6602 16.8594C37.5326 17.1979 37.4688 17.5781 37.4688 18C37.4688 18.4271 37.5339 18.8151 37.6641 19.1641C37.7969 19.5104 37.9922 19.7865 38.25 19.9922C38.5104 20.1953 38.8333 20.2969 39.2188 20.2969ZM46.1758 21.125C45.5977 21.125 45.099 20.9974 44.6797 20.7422C44.263 20.4844 43.9414 20.125 43.7148 19.6641C43.4909 19.2005 43.3789 18.6615 43.3789 18.0469C43.3789 17.4323 43.4909 16.8906 43.7148 16.4219C43.9414 15.9505 44.2565 15.5833 44.6602 15.3203C45.0664 15.0547 45.5404 14.9219 46.082 14.9219C46.3945 14.9219 46.7031 14.974 47.0078 15.0781C47.3125 15.1823 47.5898 15.3516 47.8398 15.5859C48.0898 15.8177 48.2891 16.125 48.4375 16.5078C48.5859 16.8906 48.6602 17.362 48.6602 17.9219V18.3125H44.0352V17.5156H47.7227C47.7227 17.1771 47.6549 16.875 47.5195 16.6094C47.3867 16.3437 47.1966 16.1341 46.9492 15.9805C46.7044 15.8268 46.4154 15.75 46.082 15.75C45.7148 15.75 45.3971 15.8411 45.1289 16.0234C44.8633 16.2031 44.6589 16.4375 44.5156 16.7266C44.3724 17.0156 44.3008 17.3255 44.3008 17.6562V18.1875C44.3008 18.6406 44.3789 19.0247 44.5352 19.3398C44.694 19.6523 44.9141 19.8906 45.1953 20.0547C45.4766 20.2161 45.8034 20.2969 46.1758 20.2969C46.418 20.2969 46.6367 20.263 46.832 20.1953C47.0299 20.125 47.2005 20.0208 47.3438 19.8828C47.487 19.7422 47.5977 19.5677 47.6758 19.3594L48.5664 19.6094C48.4727 19.9115 48.3151 20.1771 48.0938 20.4062C47.8724 20.6328 47.599 20.8099 47.2734 20.9375C46.9479 21.0625 46.582 21.125 46.1758 21.125ZM52.5 21.125C51.9583 21.125 51.4831 20.9961 51.0742 20.7383C50.668 20.4805 50.3503 20.1198 50.1211 19.6562C49.8945 19.1927 49.7813 18.651 49.7813 18.0312C49.7813 17.4062 49.8945 16.8607 50.1211 16.3945C50.3503 15.9284 50.668 15.5664 51.0742 15.3086C51.4831 15.0508 51.9583 14.9219 52.5 14.9219C53.0417 14.9219 53.5156 15.0508 53.9219 15.3086C54.3307 15.5664 54.6484 15.9284 54.875 16.3945C55.1042 16.8607 55.2188 17.4062 55.2188 18.0312C55.2188 18.651 55.1042 19.1927 54.875 19.6562C54.6484 20.1198 54.3307 20.4805 53.9219 20.7383C53.5156 20.9961 53.0417 21.125 52.5 21.125ZM52.5 20.2969C52.9115 20.2969 53.25 20.1914 53.5156 19.9805C53.7813 19.7695 53.9779 19.4922 54.1055 19.1484C54.2331 18.8047 54.2969 18.4323 54.2969 18.0312C54.2969 17.6302 54.2331 17.2565 54.1055 16.9102C53.9779 16.5638 53.7813 16.2839 53.5156 16.0703C53.25 15.8568 52.9115 15.75 52.5 15.75C52.0885 15.75 51.75 15.8568 51.4844 16.0703C51.2188 16.2839 51.0221 16.5638 50.8945 16.9102C50.7669 17.2565 50.7031 17.6302 50.7031 18.0312C50.7031 18.4323 50.7669 18.8047 50.8945 19.1484C51.0221 19.4922 51.2188 19.7695 51.4844 19.9805C51.75 20.1914 52.0885 20.2969 52.5 20.2969ZM38.5322 29.3437L37.7041 29.5781C37.652 29.4401 37.5752 29.306 37.4736 29.1758C37.3747 29.043 37.2393 28.9336 37.0674 28.8477C36.8955 28.7617 36.6755 28.7187 36.4072 28.7187C36.04 28.7187 35.734 28.8034 35.4893 28.9727C35.2471 29.1393 35.126 29.3516 35.126 29.6094C35.126 29.8385 35.2093 30.0195 35.376 30.1523C35.5426 30.2852 35.8031 30.3958 36.1572 30.4844L37.0479 30.7031C37.5843 30.8333 37.984 31.0326 38.2471 31.3008C38.5101 31.5664 38.6416 31.9089 38.6416 32.3281C38.6416 32.6719 38.5426 32.9792 38.3447 33.25C38.1494 33.5208 37.876 33.7344 37.5244 33.8906C37.1729 34.0469 36.764 34.125 36.2979 34.125C35.6859 34.125 35.1794 33.9922 34.7783 33.7266C34.3773 33.4609 34.1234 33.0729 34.0166 32.5625L34.8916 32.3437C34.9749 32.6667 35.1325 32.9089 35.3643 33.0703C35.5986 33.2318 35.9046 33.3125 36.2822 33.3125C36.7119 33.3125 37.0531 33.2214 37.3057 33.0391C37.5609 32.8542 37.6885 32.6328 37.6885 32.375C37.6885 32.1667 37.6156 31.9922 37.4697 31.8516C37.3239 31.7083 37.0999 31.6016 36.7979 31.5312L35.7979 31.2969C35.2484 31.1667 34.8447 30.9648 34.5869 30.6914C34.3317 30.4154 34.2041 30.0703 34.2041 29.6562C34.2041 29.3177 34.2992 29.0182 34.4893 28.7578C34.682 28.4974 34.9437 28.293 35.2744 28.1445C35.6077 27.9961 35.9854 27.9219 36.4072 27.9219C37.001 27.9219 37.4671 28.0521 37.8057 28.3125C38.1468 28.5729 38.389 28.9167 38.5322 29.3437ZM42.4668 34.125C41.9251 34.125 41.4499 33.9961 41.041 33.7383C40.6348 33.4805 40.3171 33.1198 40.0879 32.6562C39.8613 32.1927 39.748 31.651 39.748 31.0312C39.748 30.4062 39.8613 29.8607 40.0879 29.3945C40.3171 28.9284 40.6348 28.5664 41.041 28.3086C41.4499 28.0508 41.9251 27.9219 42.4668 27.9219C43.0085 27.9219 43.4824 28.0508 43.8887 28.3086C44.2975 28.5664 44.6152 28.9284 44.8418 29.3945C45.071 29.8607 45.1855 30.4062 45.1855 31.0312C45.1855 31.651 45.071 32.1927 44.8418 32.6562C44.6152 33.1198 44.2975 33.4805 43.8887 33.7383C43.4824 33.9961 43.0085 34.125 42.4668 34.125ZM42.4668 33.2969C42.8783 33.2969 43.2168 33.1914 43.4824 32.9805C43.748 32.7695 43.9447 32.4922 44.0723 32.1484C44.1999 31.8047 44.2637 31.4323 44.2637 31.0312C44.2637 30.6302 44.1999 30.2565 44.0723 29.9102C43.9447 29.5638 43.748 29.2839 43.4824 29.0703C43.2168 28.8568 42.8783 28.75 42.4668 28.75C42.0553 28.75 41.7168 28.8568 41.4512 29.0703C41.1855 29.2839 40.9889 29.5638 40.8613 29.9102C40.7337 30.2565 40.6699 30.6302 40.6699 31.0312C40.6699 31.4323 40.7337 31.8047 40.8613 32.1484C40.9889 32.4922 41.1855 32.7695 41.4512 32.9805C41.7168 33.1914 42.0553 33.2969 42.4668 33.2969ZM50.374 31.5469V28H51.2959V34H50.374V32.9844H50.3115C50.1709 33.2891 49.9521 33.5482 49.6553 33.7617C49.3584 33.9727 48.9834 34.0781 48.5303 34.0781C48.1553 34.0781 47.8219 33.9961 47.5303 33.832C47.2386 33.6654 47.0094 33.4154 46.8428 33.082C46.6761 32.7461 46.5928 32.3229 46.5928 31.8125V28H47.5146V31.75C47.5146 32.1875 47.637 32.5365 47.8818 32.7969C48.1292 33.0573 48.4443 33.1875 48.8271 33.1875C49.0563 33.1875 49.2894 33.1289 49.5264 33.0117C49.766 32.8945 49.9665 32.7148 50.1279 32.4727C50.292 32.2305 50.374 31.9219 50.374 31.5469ZM52.9844 34V28H53.875V28.9062H53.9375C54.0469 28.6094 54.2448 28.3685 54.5313 28.1836C54.8177 27.9987 55.1406 27.9062 55.5 27.9062C55.5677 27.9062 55.6523 27.9076 55.7539 27.9102C55.8555 27.9128 55.9323 27.9167 55.9844 27.9219V28.8594C55.9531 28.8516 55.8815 28.8398 55.7695 28.8242C55.6602 28.806 55.5443 28.7969 55.4219 28.7969C55.1302 28.7969 54.8698 28.8581 54.6406 28.9805C54.4141 29.1003 54.2344 29.2669 54.1016 29.4805C53.9714 29.6914 53.9063 29.9323 53.9063 30.2031V34H52.9844ZM59.332 34.125C58.7695 34.125 58.2852 33.9922 57.8789 33.7266C57.4727 33.4609 57.1602 33.0951 56.9414 32.6289C56.7227 32.1628 56.6133 31.6302 56.6133 31.0312C56.6133 30.4219 56.7253 29.8841 56.9492 29.418C57.1758 28.9492 57.4909 28.5833 57.8945 28.3203C58.3008 28.0547 58.7747 27.9219 59.3164 27.9219C59.7383 27.9219 60.1185 28 60.457 28.1562C60.7956 28.3125 61.0729 28.5312 61.2891 28.8125C61.5052 29.0937 61.6393 29.4219 61.6914 29.7969H60.7695C60.6992 29.5234 60.543 29.2812 60.3008 29.0703C60.0612 28.8568 59.7383 28.75 59.332 28.75C58.9727 28.75 58.6576 28.8437 58.3867 29.0312C58.1185 29.2161 57.9089 29.4779 57.7578 29.8164C57.6094 30.1523 57.5352 30.5469 57.5352 31C57.5352 31.4635 57.6081 31.8672 57.7539 32.2109C57.9023 32.5547 58.1107 32.8216 58.3789 33.0117C58.6497 33.2018 58.9674 33.2969 59.332 33.2969C59.5716 33.2969 59.7891 33.2552 59.9844 33.1719C60.1797 33.0885 60.3451 32.9688 60.4805 32.8125C60.6159 32.6562 60.7122 32.4687 60.7695 32.25H61.6914C61.6393 32.6042 61.5104 32.9232 61.3047 33.207C61.1016 33.4883 60.832 33.7122 60.4961 33.8789C60.1628 34.043 59.7747 34.125 59.332 34.125ZM65.5547 34.125C64.9766 34.125 64.4779 33.9974 64.0586 33.7422C63.6419 33.4844 63.3203 33.125 63.0938 32.6641C62.8698 32.2005 62.7578 31.6615 62.7578 31.0469C62.7578 30.4323 62.8698 29.8906 63.0938 29.4219C63.3203 28.9505 63.6354 28.5833 64.0391 28.3203C64.4453 28.0547 64.9193 27.9219 65.4609 27.9219C65.7734 27.9219 66.082 27.974 66.3867 28.0781C66.6914 28.1823 66.9688 28.3516 67.2188 28.5859C67.4688 28.8177 67.668 29.125 67.8164 29.5078C67.9648 29.8906 68.0391 30.362 68.0391 30.9219V31.3125H63.4141V30.5156H67.1016C67.1016 30.1771 67.0339 29.875 66.8984 29.6094C66.7656 29.3437 66.5755 29.1341 66.3281 28.9805C66.0833 28.8268 65.7943 28.75 65.4609 28.75C65.0938 28.75 64.776 28.8411 64.5078 29.0234C64.2422 29.2031 64.0378 29.4375 63.8945 29.7266C63.7513 30.0156 63.6797 30.3255 63.6797 30.6562V31.1875C63.6797 31.6406 63.7578 32.0247 63.9141 32.3398C64.0729 32.6523 64.293 32.8906 64.5742 33.0547C64.8555 33.2161 65.1823 33.2969 65.5547 33.2969C65.7969 33.2969 66.0156 33.263 66.2109 33.1953C66.4089 33.125 66.5794 33.0208 66.7227 32.8828C66.8659 32.7422 66.9766 32.5677 67.0547 32.3594L67.9453 32.6094C67.8516 32.9115 67.694 33.1771 67.4727 33.4062C67.2513 33.6328 66.9779 33.8099 66.6523 33.9375C66.3268 34.0625 65.9609 34.125 65.5547 34.125ZM36.8916 54V54.7812H33.7822V54H36.8916ZM34.6885 52.5625H35.6104V58.2812C35.6104 58.5417 35.6481 58.737 35.7236 58.8672C35.8018 58.9948 35.9007 59.0807 36.0205 59.125C36.1429 59.1667 36.2718 59.1875 36.4072 59.1875C36.5088 59.1875 36.5921 59.1823 36.6572 59.1719C36.7223 59.1589 36.7744 59.1484 36.8135 59.1406L37.001 59.9687C36.9385 59.9922 36.8512 60.0156 36.7393 60.0391C36.6273 60.0651 36.4854 60.0781 36.3135 60.0781C36.0531 60.0781 35.7979 60.0221 35.5479 59.9102C35.3005 59.7982 35.0947 59.6276 34.9307 59.3984C34.7692 59.1693 34.6885 58.8802 34.6885 58.5312V52.5625ZM38.2783 60V54H39.1689V54.9062H39.2314C39.3408 54.6094 39.5387 54.3685 39.8252 54.1836C40.1117 53.9987 40.4346 53.9062 40.7939 53.9062C40.8617 53.9062 40.9463 53.9076 41.0479 53.9102C41.1494 53.9128 41.2262 53.9167 41.2783 53.9219V54.8594C41.2471 54.8516 41.1755 54.8398 41.0635 54.8242C40.9541 54.806 40.8382 54.7969 40.7158 54.7969C40.4242 54.7969 40.1637 54.8581 39.9346 54.9805C39.708 55.1003 39.5283 55.2669 39.3955 55.4805C39.2653 55.6914 39.2002 55.9323 39.2002 56.2031V60H38.2783ZM44.1367 60.1406C43.7565 60.1406 43.4115 60.069 43.1016 59.9258C42.7917 59.7799 42.5456 59.5703 42.3633 59.2969C42.181 59.0208 42.0898 58.6875 42.0898 58.2969C42.0898 57.9531 42.1576 57.6745 42.293 57.4609C42.4284 57.2448 42.6094 57.0755 42.8359 56.9531C43.0625 56.8307 43.3125 56.7396 43.5859 56.6797C43.862 56.6172 44.1393 56.5677 44.418 56.5313C44.7826 56.4844 45.0781 56.4492 45.3047 56.4258C45.5339 56.3997 45.7005 56.3568 45.8047 56.2969C45.9115 56.237 45.9648 56.1328 45.9648 55.9844V55.9531C45.9648 55.5677 45.8594 55.2682 45.6484 55.0547C45.4401 54.8411 45.1237 54.7344 44.6992 54.7344C44.2591 54.7344 43.9141 54.8307 43.6641 55.0234C43.4141 55.2161 43.2383 55.4219 43.1367 55.6406L42.2617 55.3281C42.418 54.9635 42.6263 54.6797 42.8867 54.4766C43.1497 54.2708 43.4362 54.1276 43.7461 54.0469C44.0586 53.9635 44.3659 53.9219 44.668 53.9219C44.8607 53.9219 45.082 53.9453 45.332 53.9922C45.5846 54.0365 45.8281 54.1289 46.0625 54.2695C46.2995 54.4102 46.4961 54.6224 46.6523 54.9062C46.8086 55.1901 46.8867 55.5703 46.8867 56.0469V60H45.9648V59.1875H45.918C45.8555 59.3177 45.7513 59.457 45.6055 59.6055C45.4596 59.7539 45.2656 59.8802 45.0234 59.9844C44.7813 60.0885 44.4857 60.1406 44.1367 60.1406ZM44.2773 59.3125C44.6419 59.3125 44.9492 59.2409 45.1992 59.0977C45.4518 58.9544 45.6419 58.7695 45.7695 58.543C45.8997 58.3164 45.9648 58.0781 45.9648 57.8281V56.9844C45.9258 57.0312 45.8398 57.0742 45.707 57.1133C45.5768 57.1497 45.4258 57.1823 45.2539 57.2109C45.0846 57.237 44.9193 57.2604 44.7578 57.2812C44.599 57.2995 44.4701 57.3151 44.3711 57.3281C44.1315 57.3594 43.9076 57.4102 43.6992 57.4805C43.4935 57.5482 43.3268 57.651 43.1992 57.7891C43.0742 57.9245 43.0117 58.1094 43.0117 58.3437C43.0117 58.6641 43.1302 58.9062 43.3672 59.0703C43.6068 59.2318 43.9102 59.3125 44.2773 59.3125ZM51.0068 60.125C50.4443 60.125 49.96 59.9922 49.5537 59.7266C49.1475 59.4609 48.835 59.0951 48.6162 58.6289C48.3975 58.1628 48.2881 57.6302 48.2881 57.0312C48.2881 56.4219 48.4001 55.8841 48.624 55.418C48.8506 54.9492 49.1657 54.5833 49.5693 54.3203C49.9756 54.0547 50.4495 53.9219 50.9912 53.9219C51.4131 53.9219 51.7933 54 52.1318 54.1562C52.4704 54.3125 52.7477 54.5312 52.9639 54.8125C53.18 55.0937 53.3141 55.4219 53.3662 55.7969H52.4443C52.374 55.5234 52.2178 55.2812 51.9756 55.0703C51.736 54.8568 51.4131 54.75 51.0068 54.75C50.6475 54.75 50.3324 54.8437 50.0615 55.0312C49.7933 55.2161 49.5837 55.4779 49.4326 55.8164C49.2842 56.1523 49.21 56.5469 49.21 57C49.21 57.4635 49.2829 57.8672 49.4287 58.2109C49.5771 58.5547 49.7855 58.8216 50.0537 59.0117C50.3245 59.2018 50.6423 59.2969 51.0068 59.2969C51.2464 59.2969 51.4639 59.2552 51.6592 59.1719C51.8545 59.0885 52.0199 58.9688 52.1553 58.8125C52.2907 58.6562 52.387 58.4687 52.4443 58.25H53.3662C53.3141 58.6042 53.1852 58.9232 52.9795 59.207C52.7764 59.4883 52.5068 59.7122 52.1709 59.8789C51.8376 60.043 51.4495 60.125 51.0068 60.125ZM55.5732 57.8125L55.5576 56.6719H55.7451L58.3701 54H59.5107L56.7139 56.8281H56.6357L55.5732 57.8125ZM54.7139 60V52H55.6357V60H54.7139ZM58.5264 60L56.1826 57.0312L56.8389 56.3906L59.6982 60H58.5264ZM36.9219 132L34.7031 138H33.7656L31.5469 132H32.5469L34.2031 136.781H34.2656L35.9219 132H36.9219ZM38.1387 138V132H39.0605V138H38.1387ZM38.6074 131C38.4277 131 38.2728 130.939 38.1426 130.816C38.015 130.694 37.9512 130.547 37.9512 130.375C37.9512 130.203 38.015 130.056 38.1426 129.934C38.2728 129.811 38.4277 129.75 38.6074 129.75C38.7871 129.75 38.9408 129.811 39.0684 129.934C39.1986 130.056 39.2637 130.203 39.2637 130.375C39.2637 130.547 39.1986 130.694 39.0684 130.816C38.9408 130.939 38.7871 131 38.6074 131ZM43.0146 138.125C42.5146 138.125 42.0732 137.999 41.6904 137.746C41.3076 137.491 41.0081 137.132 40.792 136.668C40.5758 136.202 40.4678 135.651 40.4678 135.016C40.4678 134.385 40.5758 133.839 40.792 133.375C41.0081 132.911 41.3089 132.553 41.6943 132.301C42.0798 132.048 42.5251 131.922 43.0303 131.922C43.4209 131.922 43.7295 131.987 43.9561 132.117C44.1852 132.245 44.3597 132.391 44.4795 132.555C44.6019 132.716 44.6969 132.849 44.7646 132.953H44.8428V130H45.7646V138H44.874V137.078H44.7646C44.6969 137.187 44.6006 137.326 44.4756 137.492C44.3506 137.656 44.1722 137.803 43.9404 137.934C43.7087 138.061 43.4001 138.125 43.0146 138.125ZM43.1396 137.297C43.5094 137.297 43.8219 137.201 44.0771 137.008C44.3324 136.812 44.5264 136.543 44.6592 136.199C44.792 135.853 44.8584 135.453 44.8584 135C44.8584 134.552 44.7933 134.16 44.6631 133.824C44.5329 133.486 44.3402 133.223 44.085 133.035C43.8298 132.845 43.5146 132.75 43.1396 132.75C42.749 132.75 42.4235 132.85 42.1631 133.051C41.9053 133.249 41.7113 133.518 41.5811 133.859C41.4535 134.198 41.3896 134.578 41.3896 135C41.3896 135.427 41.4548 135.815 41.585 136.164C41.7178 136.51 41.9131 136.786 42.1709 136.992C42.4313 137.195 42.7542 137.297 43.1396 137.297ZM50.0967 138.125C49.5186 138.125 49.0199 137.997 48.6006 137.742C48.1839 137.484 47.8623 137.125 47.6357 136.664C47.4118 136.201 47.2998 135.661 47.2998 135.047C47.2998 134.432 47.4118 133.891 47.6357 133.422C47.8623 132.951 48.1774 132.583 48.5811 132.32C48.9873 132.055 49.4613 131.922 50.0029 131.922C50.3154 131.922 50.624 131.974 50.9287 132.078C51.2334 132.182 51.5107 132.352 51.7607 132.586C52.0107 132.818 52.21 133.125 52.3584 133.508C52.5068 133.891 52.5811 134.362 52.5811 134.922V135.312H47.9561V134.516H51.6436C51.6436 134.177 51.5758 133.875 51.4404 133.609C51.3076 133.344 51.1175 133.134 50.8701 132.98C50.6253 132.827 50.3363 132.75 50.0029 132.75C49.6357 132.75 49.318 132.841 49.0498 133.023C48.7842 133.203 48.5798 133.437 48.4365 133.727C48.2933 134.016 48.2217 134.326 48.2217 134.656V135.188C48.2217 135.641 48.2998 136.025 48.4561 136.34C48.6149 136.652 48.835 136.891 49.1162 137.055C49.3975 137.216 49.7243 137.297 50.0967 137.297C50.3389 137.297 50.5576 137.263 50.7529 137.195C50.9508 137.125 51.1214 137.021 51.2646 136.883C51.4079 136.742 51.5186 136.568 51.5967 136.359L52.4873 136.609C52.3936 136.911 52.236 137.177 52.0146 137.406C51.7933 137.633 51.5199 137.81 51.1943 137.937C50.8688 138.063 50.5029 138.125 50.0967 138.125ZM56.4209 138.125C55.8792 138.125 55.404 137.996 54.9951 137.738C54.5889 137.48 54.2712 137.12 54.042 136.656C53.8154 136.193 53.7021 135.651 53.7021 135.031C53.7021 134.406 53.8154 133.861 54.042 133.395C54.2712 132.928 54.5889 132.566 54.9951 132.309C55.404 132.051 55.8792 131.922 56.4209 131.922C56.9626 131.922 57.4365 132.051 57.8428 132.309C58.2516 132.566 58.5693 132.928 58.7959 133.395C59.0251 133.861 59.1396 134.406 59.1396 135.031C59.1396 135.651 59.0251 136.193 58.7959 136.656C58.5693 137.12 58.2516 137.48 57.8428 137.738C57.4365 137.996 56.9626 138.125 56.4209 138.125ZM56.4209 137.297C56.8324 137.297 57.1709 137.191 57.4365 136.98C57.7021 136.77 57.8988 136.492 58.0264 136.148C58.154 135.805 58.2178 135.432 58.2178 135.031C58.2178 134.63 58.154 134.257 58.0264 133.91C57.8988 133.564 57.7021 133.284 57.4365 133.07C57.1709 132.857 56.8324 132.75 56.4209 132.75C56.0094 132.75 55.6709 132.857 55.4053 133.07C55.1396 133.284 54.943 133.564 54.8154 133.91C54.6878 134.257 54.624 134.63 54.624 135.031C54.624 135.432 54.6878 135.805 54.8154 136.148C54.943 136.492 55.1396 136.77 55.4053 136.98C55.6709 137.191 56.0094 137.297 56.4209 137.297Z" fill="#5691FF"/>
<path d="M62.1572 21.125C61.5947 21.125 61.1104 20.9922 60.7041 20.7266C60.2979 20.4609 59.9854 20.0951 59.7666 19.6289C59.5479 19.1628 59.4385 18.6302 59.4385 18.0312C59.4385 17.4219 59.5505 16.8841 59.7744 16.418C60.001 15.9492 60.3161 15.5833 60.7197 15.3203C61.126 15.0547 61.5999 14.9219 62.1416 14.9219C62.5635 14.9219 62.9437 15 63.2822 15.1562C63.6208 15.3125 63.8981 15.5312 64.1143 15.8125C64.3304 16.0937 64.4645 16.4219 64.5166 16.7969H63.5947C63.5244 16.5234 63.3682 16.2812 63.126 16.0703C62.8864 15.8568 62.5635 15.75 62.1572 15.75C61.7979 15.75 61.4827 15.8437 61.2119 16.0312C60.9437 16.2161 60.734 16.4779 60.583 16.8164C60.4346 17.1523 60.3604 17.5469 60.3604 18C60.3604 18.4635 60.4333 18.8672 60.5791 19.2109C60.7275 19.5547 60.9359 19.8216 61.2041 20.0117C61.4749 20.2018 61.7926 20.2969 62.1572 20.2969C62.3968 20.2969 62.6143 20.2552 62.8096 20.1719C63.0049 20.0885 63.1702 19.9688 63.3057 19.8125C63.4411 19.6562 63.5374 19.4687 63.5947 19.25H64.5166C64.4645 19.6042 64.3356 19.9232 64.1299 20.207C63.9268 20.4883 63.6572 20.7122 63.3213 20.8789C62.988 21.043 62.5999 21.125 62.1572 21.125ZM68.3018 21.125C67.7601 21.125 67.2848 20.9961 66.876 20.7383C66.4697 20.4805 66.152 20.1198 65.9229 19.6562C65.6963 19.1927 65.583 18.651 65.583 18.0312C65.583 17.4062 65.6963 16.8607 65.9229 16.3945C66.152 15.9284 66.4697 15.5664 66.876 15.3086C67.2848 15.0508 67.7601 14.9219 68.3018 14.9219C68.8434 14.9219 69.3174 15.0508 69.7236 15.3086C70.1325 15.5664 70.4502 15.9284 70.6768 16.3945C70.9059 16.8607 71.0205 17.4062 71.0205 18.0312C71.0205 18.651 70.9059 19.1927 70.6768 19.6562C70.4502 20.1198 70.1325 20.4805 69.7236 20.7383C69.3174 20.9961 68.8434 21.125 68.3018 21.125ZM68.3018 20.2969C68.7132 20.2969 69.0518 20.1914 69.3174 19.9805C69.583 19.7695 69.7796 19.4922 69.9072 19.1484C70.0348 18.8047 70.0986 18.4323 70.0986 18.0312C70.0986 17.6302 70.0348 17.2565 69.9072 16.9102C69.7796 16.5638 69.583 16.2839 69.3174 16.0703C69.0518 15.8568 68.7132 15.75 68.3018 15.75C67.8903 15.75 67.5518 15.8568 67.2861 16.0703C67.0205 16.2839 66.8239 16.5638 66.6963 16.9102C66.5687 17.2565 66.5049 17.6302 66.5049 18.0312C66.5049 18.4323 66.5687 18.8047 66.6963 19.1484C66.8239 19.4922 67.0205 19.7695 67.2861 19.9805C67.5518 20.1914 67.8903 20.2969 68.3018 20.2969ZM73.3496 17.3906V21H72.4277V15H73.3184V15.9375H73.3965C73.5371 15.6328 73.7507 15.388 74.0371 15.2031C74.3236 15.0156 74.6934 14.9219 75.1465 14.9219C75.5527 14.9219 75.9082 15.0052 76.2129 15.1719C76.5176 15.3359 76.7546 15.5859 76.9238 15.9219C77.0931 16.2552 77.1777 16.6771 77.1777 17.1875V21H76.2559V17.25C76.2559 16.7786 76.1335 16.4115 75.8887 16.1484C75.6439 15.8828 75.3079 15.75 74.8809 15.75C74.5866 15.75 74.3236 15.8138 74.0918 15.9414C73.8626 16.069 73.6816 16.2552 73.5488 16.5C73.416 16.7448 73.3496 17.0417 73.3496 17.3906ZM81.4717 15V15.7812H78.3623V15H81.4717ZM79.2686 13.5625H80.1904V19.2812C80.1904 19.5417 80.2282 19.737 80.3037 19.8672C80.3818 19.9948 80.4808 20.0807 80.6006 20.125C80.723 20.1667 80.8519 20.1875 80.9873 20.1875C81.0889 20.1875 81.1722 20.1823 81.2373 20.1719C81.3024 20.1589 81.3545 20.1484 81.3936 20.1406L81.5811 20.9687C81.5186 20.9922 81.4313 21.0156 81.3193 21.0391C81.2074 21.0651 81.0654 21.0781 80.8936 21.0781C80.6331 21.0781 80.3779 21.0221 80.1279 20.9102C79.8805 20.7982 79.6748 20.6276 79.5107 20.3984C79.3493 20.1693 79.2686 19.8802 79.2686 19.5312V13.5625ZM82.8584 21V15H83.749V15.9062H83.8115C83.9209 15.6094 84.1188 15.3685 84.4053 15.1836C84.6917 14.9987 85.0146 14.9062 85.374 14.9062C85.4417 14.9062 85.5264 14.9076 85.6279 14.9102C85.7295 14.9128 85.8063 14.9167 85.8584 14.9219V15.8594C85.8271 15.8516 85.7555 15.8398 85.6436 15.8242C85.5342 15.806 85.4183 15.7969 85.2959 15.7969C85.0042 15.7969 84.7438 15.8581 84.5146 15.9805C84.2881 16.1003 84.1084 16.2669 83.9756 16.4805C83.8454 16.6914 83.7803 16.9323 83.7803 17.2031V21H82.8584ZM89.2061 21.125C88.6644 21.125 88.1891 20.9961 87.7803 20.7383C87.374 20.4805 87.0563 20.1198 86.8271 19.6562C86.6006 19.1927 86.4873 18.651 86.4873 18.0312C86.4873 17.4062 86.6006 16.8607 86.8271 16.3945C87.0563 15.9284 87.374 15.5664 87.7803 15.3086C88.1891 15.0508 88.6644 14.9219 89.2061 14.9219C89.7477 14.9219 90.2217 15.0508 90.6279 15.3086C91.0368 15.5664 91.3545 15.9284 91.5811 16.3945C91.8102 16.8607 91.9248 17.4062 91.9248 18.0312C91.9248 18.651 91.8102 19.1927 91.5811 19.6562C91.3545 20.1198 91.0368 20.4805 90.6279 20.7383C90.2217 20.9961 89.7477 21.125 89.2061 21.125ZM89.2061 20.2969C89.6175 20.2969 89.9561 20.1914 90.2217 19.9805C90.4873 19.7695 90.6839 19.4922 90.8115 19.1484C90.9391 18.8047 91.0029 18.4323 91.0029 18.0312C91.0029 17.6302 90.9391 17.2565 90.8115 16.9102C90.6839 16.5638 90.4873 16.2839 90.2217 16.0703C89.9561 15.8568 89.6175 15.75 89.2061 15.75C88.7946 15.75 88.4561 15.8568 88.1904 16.0703C87.9248 16.2839 87.7282 16.5638 87.6006 16.9102C87.473 17.2565 87.4092 17.6302 87.4092 18.0312C87.4092 18.4323 87.473 18.8047 87.6006 19.1484C87.7282 19.4922 87.9248 19.7695 88.1904 19.9805C88.4561 20.1914 88.7946 20.2969 89.2061 20.2969ZM94.2539 13V21H93.332V13H94.2539ZM100.192 16.3437L99.3643 16.5781C99.3122 16.4401 99.2354 16.306 99.1338 16.1758C99.0348 16.043 98.8994 15.9336 98.7275 15.8477C98.5557 15.7617 98.3356 15.7187 98.0674 15.7187C97.7002 15.7187 97.3942 15.8034 97.1494 15.9727C96.9072 16.1393 96.7861 16.3516 96.7861 16.6094C96.7861 16.8385 96.8695 17.0195 97.0361 17.1523C97.2028 17.2852 97.4632 17.3958 97.8174 17.4844L98.708 17.7031C99.2445 17.8333 99.6442 18.0326 99.9072 18.3008C100.17 18.5664 100.302 18.9089 100.302 19.3281C100.302 19.6719 100.203 19.9792 100.005 20.25C99.8096 20.5208 99.5361 20.7344 99.1846 20.8906C98.833 21.0469 98.4242 21.125 97.958 21.125C97.346 21.125 96.8395 20.9922 96.4385 20.7266C96.0374 20.4609 95.7835 20.0729 95.6768 19.5625L96.5518 19.3437C96.6351 19.6667 96.7926 19.9089 97.0244 20.0703C97.2588 20.2318 97.5648 20.3125 97.9424 20.3125C98.3721 20.3125 98.7132 20.2214 98.9658 20.0391C99.221 19.8542 99.3486 19.6328 99.3486 19.375C99.3486 19.1667 99.2757 18.9922 99.1299 18.8516C98.984 18.7083 98.7601 18.6016 98.458 18.5312L97.458 18.2969C96.9085 18.1667 96.5049 17.9648 96.2471 17.6914C95.9919 17.4154 95.8643 17.0703 95.8643 16.6562C95.8643 16.3177 95.9593 16.0182 96.1494 15.7578C96.3421 15.4974 96.6038 15.293 96.9346 15.1445C97.2679 14.9961 97.6455 14.9219 98.0674 14.9219C98.6611 14.9219 99.1273 15.0521 99.4658 15.3125C99.807 15.5729 100.049 15.9167 100.192 16.3437ZM76.7852 29.3437L75.957 29.5781C75.9049 29.4401 75.8281 29.306 75.7266 29.1758C75.6276 29.043 75.4922 28.9336 75.3203 28.8477C75.1484 28.7617 74.9284 28.7187 74.6602 28.7187C74.293 28.7187 73.987 28.8034 73.7422 28.9727C73.5 29.1393 73.3789 29.3516 73.3789 29.6094C73.3789 29.8385 73.4622 30.0195 73.6289 30.1523C73.7956 30.2852 74.056 30.3958 74.4102 30.4844L75.3008 30.7031C75.8372 30.8333 76.237 31.0326 76.5 31.3008C76.763 31.5664 76.8945 31.9089 76.8945 32.3281C76.8945 32.6719 76.7956 32.9792 76.5977 33.25C76.4023 33.5208 76.1289 33.7344 75.7773 33.8906C75.4258 34.0469 75.0169 34.125 74.5508 34.125C73.9388 34.125 73.4323 33.9922 73.0313 33.7266C72.6302 33.4609 72.3763 33.0729 72.2695 32.5625L73.1445 32.3437C73.2279 32.6667 73.3854 32.9089 73.6172 33.0703C73.8516 33.2318 74.1576 33.3125 74.5352 33.3125C74.9648 33.3125 75.306 33.2214 75.5586 33.0391C75.8138 32.8542 75.9414 32.6328 75.9414 32.375C75.9414 32.1667 75.8685 31.9922 75.7227 31.8516C75.5768 31.7083 75.3529 31.6016 75.0508 31.5312L74.0508 31.2969C73.5013 31.1667 73.0977 30.9648 72.8398 30.6914C72.5846 30.4154 72.457 30.0703 72.457 29.6562C72.457 29.3177 72.5521 29.0182 72.7422 28.7578C72.9349 28.4974 73.1966 28.293 73.5273 28.1445C73.8607 27.9961 74.2383 27.9219 74.6602 27.9219C75.2539 27.9219 75.7201 28.0521 76.0586 28.3125C76.3997 28.5729 76.6419 28.9167 76.7852 29.3437ZM78.2822 34V28H79.1729V28.9062H79.2354C79.3447 28.6094 79.5426 28.3685 79.8291 28.1836C80.1156 27.9987 80.4385 27.9062 80.7979 27.9062C80.8656 27.9062 80.9502 27.9076 81.0518 27.9102C81.1533 27.9128 81.2301 27.9167 81.2822 27.9219V28.8594C81.251 28.8516 81.1794 28.8398 81.0674 28.8242C80.958 28.806 80.8421 28.7969 80.7197 28.7969C80.4281 28.7969 80.1676 28.8581 79.9385 28.9805C79.7119 29.1003 79.5322 29.2669 79.3994 29.4805C79.2692 29.6914 79.2041 29.9323 79.2041 30.2031V34H78.2822ZM84.6299 34.125C84.0674 34.125 83.583 33.9922 83.1768 33.7266C82.7705 33.4609 82.458 33.0951 82.2393 32.6289C82.0205 32.1628 81.9111 31.6302 81.9111 31.0312C81.9111 30.4219 82.0231 29.8841 82.2471 29.418C82.4736 28.9492 82.7887 28.5833 83.1924 28.3203C83.5986 28.0547 84.0726 27.9219 84.6143 27.9219C85.0361 27.9219 85.4163 28 85.7549 28.1562C86.0934 28.3125 86.3708 28.5312 86.5869 28.8125C86.8031 29.0937 86.9372 29.4219 86.9893 29.7969H86.0674C85.9971 29.5234 85.8408 29.2812 85.5986 29.0703C85.359 28.8568 85.0361 28.75 84.6299 28.75C84.2705 28.75 83.9554 28.8437 83.6846 29.0312C83.4163 29.2161 83.2067 29.4779 83.0557 29.8164C82.9072 30.1523 82.833 30.5469 82.833 31C82.833 31.4635 82.9059 31.8672 83.0518 32.2109C83.2002 32.5547 83.4085 32.8216 83.6768 33.0117C83.9476 33.2018 84.2653 33.2969 84.6299 33.2969C84.8695 33.2969 85.0869 33.2552 85.2822 33.1719C85.4775 33.0885 85.6429 32.9688 85.7783 32.8125C85.9137 32.6562 86.0101 32.4687 86.0674 32.25H86.9893C86.9372 32.6042 86.8083 32.9232 86.6025 33.207C86.3994 33.4883 86.1299 33.7122 85.7939 33.8789C85.4606 34.043 85.0726 34.125 84.6299 34.125ZM35.8281 41V41.7812H32.7188V41H35.8281ZM33.625 39.5625H34.5469V45.2812C34.5469 45.5417 34.5846 45.737 34.6602 45.8672C34.7383 45.9948 34.8372 46.0807 34.957 46.125C35.0794 46.1667 35.2083 46.1875 35.3438 46.1875C35.4453 46.1875 35.5286 46.1823 35.5938 46.1719C35.6589 46.1589 35.7109 46.1484 35.75 46.1406L35.9375 46.9687C35.875 46.9922 35.7878 47.0156 35.6758 47.0391C35.5638 47.0651 35.4219 47.0781 35.25 47.0781C34.9896 47.0781 34.7344 47.0221 34.4844 46.9102C34.237 46.7982 34.0313 46.6276 33.8672 46.3984C33.7057 46.1693 33.625 45.8802 33.625 45.5312V39.5625ZM37.8086 49.25C37.6523 49.25 37.513 49.237 37.3906 49.2109C37.2682 49.1875 37.1836 49.1641 37.1367 49.1406L37.3711 48.3281C37.5951 48.3854 37.793 48.4063 37.9648 48.3906C38.1367 48.375 38.2891 48.2982 38.4219 48.1602C38.5573 48.0247 38.681 47.8047 38.793 47.5L38.9648 47.0313L36.7461 41H37.7461L39.4023 45.7812H39.4648L41.1211 41H42.1211L39.5742 47.875C39.4596 48.1849 39.3177 48.4414 39.1484 48.6445C38.9792 48.8503 38.7826 49.0026 38.5586 49.1016C38.3372 49.2005 38.0872 49.25 37.8086 49.25ZM43.3379 49.25V41H44.2285V41.9531H44.3379C44.4056 41.849 44.4993 41.7161 44.6191 41.5547C44.7415 41.3906 44.916 41.2448 45.1426 41.1172C45.3717 40.987 45.6816 40.9219 46.0723 40.9219C46.5775 40.9219 47.0228 41.0482 47.4082 41.3008C47.7936 41.5534 48.0944 41.9115 48.3105 42.375C48.5267 42.8385 48.6348 43.3854 48.6348 44.0156C48.6348 44.651 48.5267 45.2018 48.3105 45.668C48.0944 46.1315 47.7949 46.4909 47.4121 46.7461C47.0293 46.9987 46.5879 47.125 46.0879 47.125C45.7025 47.125 45.3939 47.0612 45.1621 46.9336C44.9303 46.8034 44.752 46.6562 44.627 46.4922C44.502 46.3255 44.4056 46.1875 44.3379 46.0781H44.2598V49.25H43.3379ZM44.2441 44C44.2441 44.4531 44.3105 44.8529 44.4434 45.1992C44.5762 45.543 44.7702 45.8125 45.0254 46.0078C45.2806 46.2005 45.5931 46.2969 45.9629 46.2969C46.3483 46.2969 46.6699 46.1953 46.9277 45.9922C47.1882 45.7865 47.3835 45.5104 47.5137 45.1641C47.6465 44.8151 47.7129 44.4271 47.7129 44C47.7129 43.5781 47.6478 43.1979 47.5176 42.8594C47.39 42.5182 47.196 42.2487 46.9355 42.0508C46.6777 41.8503 46.3535 41.75 45.9629 41.75C45.5879 41.75 45.2728 41.8451 45.0176 42.0352C44.7624 42.2227 44.5697 42.4857 44.4395 42.8242C44.3092 43.1602 44.2441 43.5521 44.2441 44ZM52.5566 47.125C51.9785 47.125 51.4798 46.9974 51.0605 46.7422C50.6439 46.4844 50.3223 46.125 50.0957 45.6641C49.8717 45.2005 49.7598 44.6615 49.7598 44.0469C49.7598 43.4323 49.8717 42.8906 50.0957 42.4219C50.3223 41.9505 50.6374 41.5833 51.041 41.3203C51.4473 41.0547 51.9212 40.9219 52.4629 40.9219C52.7754 40.9219 53.084 40.974 53.3887 41.0781C53.6934 41.1823 53.9707 41.3516 54.2207 41.5859C54.4707 41.8177 54.6699 42.125 54.8184 42.5078C54.9668 42.8906 55.041 43.362 55.041 43.9219V44.3125H50.416V43.5156H54.1035C54.1035 43.1771 54.0358 42.875 53.9004 42.6094C53.7676 42.3437 53.5775 42.1341 53.3301 41.9805C53.0853 41.8268 52.7962 41.75 52.4629 41.75C52.0957 41.75 51.778 41.8411 51.5098 42.0234C51.2441 42.2031 51.0397 42.4375 50.8965 42.7266C50.7533 43.0156 50.6816 43.3255 50.6816 43.6562V44.1875C50.6816 44.6406 50.7598 45.0247 50.916 45.3398C51.0749 45.6523 51.2949 45.8906 51.5762 46.0547C51.8574 46.2161 52.1842 46.2969 52.5566 46.2969C52.7988 46.2969 53.0176 46.263 53.2129 46.1953C53.4108 46.125 53.5814 46.0208 53.7246 45.8828C53.8678 45.7422 53.9785 45.5677 54.0566 45.3594L54.9473 45.6094C54.8535 45.9115 54.696 46.1771 54.4746 46.4062C54.2533 46.6328 53.9798 46.8099 53.6543 46.9375C53.3288 47.0625 52.9629 47.125 52.5566 47.125ZM40.5625 68.3437L39.7344 68.5781C39.6823 68.4401 39.6055 68.306 39.5039 68.1758C39.4049 68.043 39.2695 67.9336 39.0977 67.8477C38.9258 67.7617 38.7057 67.7187 38.4375 67.7187C38.0703 67.7187 37.7643 67.8034 37.5195 67.9727C37.2773 68.1393 37.1563 68.3516 37.1563 68.6094C37.1563 68.8385 37.2396 69.0195 37.4063 69.1523C37.5729 69.2852 37.8333 69.3958 38.1875 69.4844L39.0781 69.7031C39.6146 69.8333 40.0143 70.0326 40.2773 70.3008C40.5404 70.5664 40.6719 70.9089 40.6719 71.3281C40.6719 71.6719 40.5729 71.9792 40.375 72.25C40.1797 72.5208 39.9063 72.7344 39.5547 72.8906C39.2031 73.0469 38.7943 73.125 38.3281 73.125C37.7161 73.125 37.2096 72.9922 36.8086 72.7266C36.4076 72.4609 36.1536 72.0729 36.0469 71.5625L36.9219 71.3437C37.0052 71.6667 37.1628 71.9089 37.3945 72.0703C37.6289 72.2318 37.9349 72.3125 38.3125 72.3125C38.7422 72.3125 39.0833 72.2214 39.3359 72.0391C39.5911 71.8542 39.7188 71.6328 39.7188 71.375C39.7188 71.1667 39.6458 70.9922 39.5 70.8516C39.3542 70.7083 39.1302 70.6016 38.8281 70.5312L37.8281 70.2969C37.2786 70.1667 36.875 69.9648 36.6172 69.6914C36.362 69.4154 36.2344 69.0703 36.2344 68.6562C36.2344 68.3177 36.3294 68.0182 36.5195 67.7578C36.7122 67.4974 36.974 67.293 37.3047 67.1445C37.638 66.9961 38.0156 66.9219 38.4375 66.9219C39.0313 66.9219 39.4974 67.0521 39.8359 67.3125C40.1771 67.5729 40.4193 67.9167 40.5625 68.3437ZM42.0596 73V67H42.9502V67.9062H43.0127C43.1221 67.6094 43.32 67.3685 43.6064 67.1836C43.8929 66.9987 44.2158 66.9062 44.5752 66.9062C44.6429 66.9062 44.7275 66.9076 44.8291 66.9102C44.9307 66.9128 45.0075 66.9167 45.0596 66.9219V67.8594C45.0283 67.8516 44.9567 67.8398 44.8447 67.8242C44.7354 67.806 44.6195 67.7969 44.4971 67.7969C44.2054 67.7969 43.945 67.8581 43.7158 67.9805C43.4893 68.1003 43.3096 68.2669 43.1768 68.4805C43.0465 68.6914 42.9814 68.9323 42.9814 69.2031V73H42.0596ZM48.4072 73.125C47.8447 73.125 47.3604 72.9922 46.9541 72.7266C46.5479 72.4609 46.2354 72.0951 46.0166 71.6289C45.7979 71.1628 45.6885 70.6302 45.6885 70.0312C45.6885 69.4219 45.8005 68.8841 46.0244 68.418C46.251 67.9492 46.5661 67.5833 46.9697 67.3203C47.376 67.0547 47.8499 66.9219 48.3916 66.9219C48.8135 66.9219 49.1937 67 49.5322 67.1562C49.8708 67.3125 50.1481 67.5312 50.3643 67.8125C50.5804 68.0937 50.7145 68.4219 50.7666 68.7969H49.8447C49.7744 68.5234 49.6182 68.2812 49.376 68.0703C49.1364 67.8568 48.8135 67.75 48.4072 67.75C48.0479 67.75 47.7327 67.8437 47.4619 68.0312C47.1937 68.2161 46.984 68.4779 46.833 68.8164C46.6846 69.1523 46.6104 69.5469 46.6104 70C46.6104 70.4635 46.6833 70.8672 46.8291 71.2109C46.9775 71.5547 47.1859 71.8216 47.4541 72.0117C47.7249 72.2018 48.0426 72.2969 48.4072 72.2969C48.6468 72.2969 48.8643 72.2552 49.0596 72.1719C49.2549 72.0885 49.4202 71.9688 49.5557 71.8125C49.6911 71.6562 49.7874 71.4687 49.8447 71.25H50.7666C50.7145 71.6042 50.5856 71.9232 50.3799 72.207C50.1768 72.4883 49.9072 72.7122 49.5713 72.8789C49.238 73.043 48.8499 73.125 48.4072 73.125ZM37.1719 83.8125L37.1563 82.6719H37.3438L39.9688 80H41.1094L38.3125 82.8281H38.2344L37.1719 83.8125ZM36.3125 86V78H37.2344V86H36.3125ZM40.125 86L37.7813 83.0312L38.4375 82.3906L41.2969 86H40.125ZM42.2959 86V80H43.2178V86H42.2959ZM42.7646 79C42.585 79 42.43 78.9388 42.2998 78.8164C42.1722 78.694 42.1084 78.5469 42.1084 78.375C42.1084 78.2031 42.1722 78.056 42.2998 77.9336C42.43 77.8112 42.585 77.75 42.7646 77.75C42.9443 77.75 43.098 77.8112 43.2256 77.9336C43.3558 78.056 43.4209 78.2031 43.4209 78.375C43.4209 78.5469 43.3558 78.694 43.2256 78.8164C43.098 78.9388 42.9443 79 42.7646 79ZM45.8281 82.3906V86H44.9063V80H45.7969V80.9375H45.875C46.0156 80.6328 46.2292 80.388 46.5156 80.2031C46.8021 80.0156 47.1719 79.9219 47.625 79.9219C48.0313 79.9219 48.3867 80.0052 48.6914 80.1719C48.9961 80.3359 49.2331 80.5859 49.4023 80.9219C49.5716 81.2552 49.6563 81.6771 49.6563 82.1875V86H48.7344V82.25C48.7344 81.7786 48.612 81.4115 48.3672 81.1484C48.1224 80.8828 47.7865 80.75 47.3594 80.75C47.0651 80.75 46.8021 80.8138 46.5703 80.9414C46.3411 81.069 46.1602 81.2552 46.0273 81.5C45.8945 81.7448 45.8281 82.0417 45.8281 82.3906ZM53.6064 86.125C53.1064 86.125 52.665 85.9987 52.2822 85.7461C51.8994 85.4909 51.5999 85.1315 51.3838 84.668C51.1676 84.2018 51.0596 83.651 51.0596 83.0156C51.0596 82.3854 51.1676 81.8385 51.3838 81.375C51.5999 80.9115 51.9007 80.5534 52.2861 80.3008C52.6715 80.0482 53.1169 79.9219 53.6221 79.9219C54.0127 79.9219 54.3213 79.987 54.5479 80.1172C54.777 80.2448 54.9515 80.3906 55.0713 80.5547C55.1937 80.7161 55.2887 80.849 55.3564 80.9531H55.4346V78H56.3564V86H55.4658V85.0781H55.3564C55.2887 85.1875 55.1924 85.3255 55.0674 85.4922C54.9424 85.6562 54.764 85.8034 54.5322 85.9336C54.3005 86.0612 53.9919 86.125 53.6064 86.125ZM53.7314 85.2969C54.1012 85.2969 54.4137 85.2005 54.6689 85.0078C54.9242 84.8125 55.1182 84.543 55.251 84.1992C55.3838 83.8529 55.4502 83.4531 55.4502 83C55.4502 82.5521 55.3851 82.1602 55.2549 81.8242C55.1247 81.4857 54.932 81.2227 54.6768 81.0352C54.4215 80.8451 54.1064 80.75 53.7314 80.75C53.3408 80.75 53.0153 80.8503 52.7549 81.0508C52.4971 81.2487 52.3031 81.5182 52.1729 81.8594C52.0452 82.1979 51.9814 82.5781 51.9814 83C51.9814 83.4271 52.0465 83.8151 52.1768 84.1641C52.3096 84.5104 52.5049 84.7865 52.7627 84.9922C53.0231 85.1953 53.346 85.2969 53.7314 85.2969ZM40.5625 94.3437L39.7344 94.5781C39.6823 94.4401 39.6055 94.306 39.5039 94.1758C39.4049 94.043 39.2695 93.9336 39.0977 93.8477C38.9258 93.7617 38.7057 93.7187 38.4375 93.7187C38.0703 93.7187 37.7643 93.8034 37.5195 93.9727C37.2773 94.1393 37.1563 94.3516 37.1563 94.6094C37.1563 94.8385 37.2396 95.0195 37.4063 95.1523C37.5729 95.2852 37.8333 95.3958 38.1875 95.4844L39.0781 95.7031C39.6146 95.8333 40.0143 96.0326 40.2773 96.3008C40.5404 96.5664 40.6719 96.9089 40.6719 97.3281C40.6719 97.6719 40.5729 97.9792 40.375 98.25C40.1797 98.5208 39.9063 98.7344 39.5547 98.8906C39.2031 99.0469 38.7943 99.125 38.3281 99.125C37.7161 99.125 37.2096 98.9922 36.8086 98.7266C36.4076 98.4609 36.1536 98.0729 36.0469 97.5625L36.9219 97.3437C37.0052 97.6667 37.1628 97.9089 37.3945 98.0703C37.6289 98.2318 37.9349 98.3125 38.3125 98.3125C38.7422 98.3125 39.0833 98.2214 39.3359 98.0391C39.5911 97.8542 39.7188 97.6328 39.7188 97.375C39.7188 97.1667 39.6458 96.9922 39.5 96.8516C39.3542 96.7083 39.1302 96.6016 38.8281 96.5312L37.8281 96.2969C37.2786 96.1667 36.875 95.9648 36.6172 95.6914C36.362 95.4154 36.2344 95.0703 36.2344 94.6562C36.2344 94.3177 36.3294 94.0182 36.5195 93.7578C36.7122 93.4974 36.974 93.293 37.3047 93.1445C37.638 92.9961 38.0156 92.9219 38.4375 92.9219C39.0313 92.9219 39.4974 93.0521 39.8359 93.3125C40.1771 93.5729 40.4193 93.9167 40.5625 94.3437ZM42.0596 99V93H42.9502V93.9062H43.0127C43.1221 93.6094 43.32 93.3685 43.6064 93.1836C43.8929 92.9987 44.2158 92.9062 44.5752 92.9062C44.6429 92.9062 44.7275 92.9076 44.8291 92.9102C44.9307 92.9128 45.0075 92.9167 45.0596 92.9219V93.8594C45.0283 93.8516 44.9567 93.8398 44.8447 93.8242C44.7354 93.806 44.6195 93.7969 44.4971 93.7969C44.2054 93.7969 43.945 93.8581 43.7158 93.9805C43.4893 94.1003 43.3096 94.2669 43.1768 94.4805C43.0465 94.6914 42.9814 94.9323 42.9814 95.2031V99H42.0596ZM48.4072 99.125C47.8447 99.125 47.3604 98.9922 46.9541 98.7266C46.5479 98.4609 46.2354 98.0951 46.0166 97.6289C45.7979 97.1628 45.6885 96.6302 45.6885 96.0312C45.6885 95.4219 45.8005 94.8841 46.0244 94.418C46.251 93.9492 46.5661 93.5833 46.9697 93.3203C47.376 93.0547 47.8499 92.9219 48.3916 92.9219C48.8135 92.9219 49.1937 93 49.5322 93.1562C49.8708 93.3125 50.1481 93.5312 50.3643 93.8125C50.5804 94.0937 50.7145 94.4219 50.7666 94.7969H49.8447C49.7744 94.5234 49.6182 94.2812 49.376 94.0703C49.1364 93.8568 48.8135 93.75 48.4072 93.75C48.0479 93.75 47.7327 93.8437 47.4619 94.0312C47.1937 94.2161 46.984 94.4779 46.833 94.8164C46.6846 95.1523 46.6104 95.5469 46.6104 96C46.6104 96.4635 46.6833 96.8672 46.8291 97.2109C46.9775 97.5547 47.1859 97.8216 47.4541 98.0117C47.7249 98.2018 48.0426 98.2969 48.4072 98.2969C48.6468 98.2969 48.8643 98.2552 49.0596 98.1719C49.2549 98.0885 49.4202 97.9688 49.5557 97.8125C49.6911 97.6562 49.7874 97.4687 49.8447 97.25H50.7666C50.7145 97.6042 50.5856 97.9232 50.3799 98.207C50.1768 98.4883 49.9072 98.7122 49.5713 98.8789C49.238 99.043 48.8499 99.125 48.4072 99.125ZM53.0361 91V99H52.1143V91H53.0361ZM56.4902 99.1406C56.11 99.1406 55.765 99.069 55.4551 98.9258C55.1452 98.7799 54.8991 98.5703 54.7168 98.2969C54.5345 98.0208 54.4434 97.6875 54.4434 97.2969C54.4434 96.9531 54.5111 96.6745 54.6465 96.4609C54.7819 96.2448 54.9629 96.0755 55.1895 95.9531C55.416 95.8307 55.666 95.7396 55.9395 95.6797C56.2155 95.6172 56.4928 95.5677 56.7715 95.5313C57.1361 95.4844 57.4316 95.4492 57.6582 95.4258C57.8874 95.3997 58.054 95.3568 58.1582 95.2969C58.265 95.237 58.3184 95.1328 58.3184 94.9844V94.9531C58.3184 94.5677 58.2129 94.2682 58.002 94.0547C57.7936 93.8411 57.4772 93.7344 57.0527 93.7344C56.6126 93.7344 56.2676 93.8307 56.0176 94.0234C55.7676 94.2161 55.5918 94.4219 55.4902 94.6406L54.6152 94.3281C54.7715 93.9635 54.9798 93.6797 55.2402 93.4766C55.5033 93.2708 55.7897 93.1276 56.0996 93.0469C56.4121 92.9635 56.7194 92.9219 57.0215 92.9219C57.2142 92.9219 57.4355 92.9453 57.6855 92.9922C57.9382 93.0365 58.1816 93.1289 58.416 93.2695C58.653 93.4102 58.8496 93.6224 59.0059 93.9062C59.1621 94.1901 59.2402 94.5703 59.2402 95.0469V99H58.3184V98.1875H58.2715C58.209 98.3177 58.1048 98.457 57.959 98.6055C57.8132 98.7539 57.6191 98.8802 57.377 98.9844C57.1348 99.0885 56.8392 99.1406 56.4902 99.1406ZM56.6309 98.3125C56.9954 98.3125 57.3027 98.2409 57.5527 98.0977C57.8053 97.9544 57.9954 97.7695 58.123 97.543C58.2533 97.3164 58.3184 97.0781 58.3184 96.8281V95.9844C58.2793 96.0312 58.1934 96.0742 58.0605 96.1133C57.9303 96.1497 57.7793 96.1823 57.6074 96.2109C57.4382 96.237 57.2728 96.2604 57.1113 96.2812C56.9525 96.2995 56.8236 96.3151 56.7246 96.3281C56.485 96.3594 56.2611 96.4102 56.0527 96.4805C55.847 96.5482 55.6803 96.651 55.5527 96.7891C55.4277 96.9245 55.3652 97.1094 55.3652 97.3437C55.3652 97.6641 55.4837 97.9062 55.7207 98.0703C55.9603 98.2318 56.2637 98.3125 56.6309 98.3125ZM61.8447 95.3906V99H60.9229V93H61.8135V93.9375H61.8916C62.0322 93.6328 62.2458 93.388 62.5322 93.2031C62.8187 93.0156 63.1885 92.9219 63.6416 92.9219C64.0479 92.9219 64.4033 93.0052 64.708 93.1719C65.0127 93.3359 65.2497 93.5859 65.4189 93.9219C65.5882 94.2552 65.6729 94.6771 65.6729 95.1875V99H64.751V95.25C64.751 94.7786 64.6286 94.4115 64.3838 94.1484C64.139 93.8828 63.8031 93.75 63.376 93.75C63.0817 93.75 62.8187 93.8138 62.5869 93.9414C62.3577 94.069 62.1768 94.2552 62.0439 94.5C61.9111 94.7448 61.8447 95.0417 61.8447 95.3906ZM69.7793 101.375C69.334 101.375 68.9512 101.318 68.6309 101.203C68.3105 101.091 68.0436 100.943 67.8301 100.758C67.6191 100.576 67.4512 100.38 67.3262 100.172L68.0605 99.6563C68.1439 99.7656 68.2493 99.8906 68.377 100.031C68.5046 100.174 68.679 100.298 68.9004 100.402C69.1243 100.509 69.4173 100.562 69.7793 100.562C70.2637 100.562 70.6634 100.445 70.9785 100.211C71.2936 99.9766 71.4512 99.6094 71.4512 99.1094V97.8906H71.373C71.3053 98 71.209 98.1354 71.084 98.2969C70.9616 98.4557 70.7845 98.5977 70.5527 98.7227C70.3236 98.8451 70.0137 98.9062 69.623 98.9062C69.1387 98.9062 68.7038 98.7917 68.3184 98.5625C67.9355 98.3333 67.6322 98 67.4082 97.5625C67.1868 97.125 67.0762 96.5937 67.0762 95.9687C67.0762 95.3542 67.1842 94.819 67.4004 94.3633C67.6165 93.9049 67.9173 93.5508 68.3027 93.3008C68.6882 93.0482 69.1335 92.9219 69.6387 92.9219C70.0293 92.9219 70.3392 92.987 70.5684 93.1172C70.8001 93.2448 70.9772 93.3906 71.0996 93.5547C71.2246 93.7161 71.321 93.849 71.3887 93.9531H71.4824V93H72.373V99.1719C72.373 99.6875 72.2559 100.107 72.0215 100.43C71.7897 100.755 71.4772 100.993 71.084 101.145C70.6934 101.298 70.2585 101.375 69.7793 101.375ZM69.748 98.0781C70.1178 98.0781 70.4303 97.9935 70.6855 97.8242C70.9408 97.6549 71.1348 97.4115 71.2676 97.0938C71.4004 96.776 71.4668 96.3958 71.4668 95.9531C71.4668 95.5208 71.4017 95.1393 71.2715 94.8086C71.1413 94.4779 70.9486 94.2187 70.6934 94.0312C70.4382 93.8437 70.123 93.75 69.748 93.75C69.3574 93.75 69.0319 93.849 68.7715 94.0469C68.5137 94.2448 68.3197 94.5104 68.1895 94.8438C68.0618 95.1771 67.998 95.5469 67.998 95.9531C67.998 96.3698 68.0632 96.7383 68.1934 97.0586C68.3262 97.3763 68.5215 97.6263 68.7793 97.8086C69.0397 97.9883 69.3626 98.0781 69.748 98.0781ZM37.2344 104V112H36.3125V104H37.2344ZM40.6885 112.141C40.3083 112.141 39.9632 112.069 39.6533 111.926C39.3434 111.78 39.0973 111.57 38.915 111.297C38.7327 111.021 38.6416 110.687 38.6416 110.297C38.6416 109.953 38.7093 109.674 38.8447 109.461C38.9801 109.245 39.1611 109.076 39.3877 108.953C39.6143 108.831 39.8643 108.74 40.1377 108.68C40.4137 108.617 40.6911 108.568 40.9697 108.531C41.3343 108.484 41.6299 108.449 41.8564 108.426C42.0856 108.4 42.2523 108.357 42.3564 108.297C42.4632 108.237 42.5166 108.133 42.5166 107.984V107.953C42.5166 107.568 42.4111 107.268 42.2002 107.055C41.9919 106.841 41.6755 106.734 41.251 106.734C40.8109 106.734 40.4658 106.831 40.2158 107.023C39.9658 107.216 39.79 107.422 39.6885 107.641L38.8135 107.328C38.9697 106.964 39.1781 106.68 39.4385 106.477C39.7015 106.271 39.988 106.128 40.2979 106.047C40.6104 105.964 40.9176 105.922 41.2197 105.922C41.4124 105.922 41.6338 105.945 41.8838 105.992C42.1364 106.036 42.3799 106.129 42.6143 106.27C42.8512 106.41 43.0479 106.622 43.2041 106.906C43.3604 107.19 43.4385 107.57 43.4385 108.047V112H42.5166V111.187H42.4697C42.4072 111.318 42.3031 111.457 42.1572 111.605C42.0114 111.754 41.8174 111.88 41.5752 111.984C41.333 112.089 41.0374 112.141 40.6885 112.141ZM40.8291 111.312C41.1937 111.312 41.501 111.241 41.751 111.098C42.0036 110.954 42.1937 110.77 42.3213 110.543C42.4515 110.316 42.5166 110.078 42.5166 109.828V108.984C42.4775 109.031 42.3916 109.074 42.2588 109.113C42.1286 109.15 41.9775 109.182 41.8057 109.211C41.6364 109.237 41.471 109.26 41.3096 109.281C41.1507 109.299 41.0218 109.315 40.9229 109.328C40.6833 109.359 40.4593 109.41 40.251 109.48C40.0452 109.548 39.8786 109.651 39.751 109.789C39.626 109.924 39.5635 110.109 39.5635 110.344C39.5635 110.664 39.682 110.906 39.9189 111.07C40.1585 111.232 40.4619 111.312 40.8291 111.312ZM45.2461 112V104H46.168V106.953H46.2461C46.3138 106.849 46.4076 106.716 46.5273 106.555C46.6497 106.391 46.8242 106.245 47.0508 106.117C47.2799 105.987 47.5898 105.922 47.9805 105.922C48.4857 105.922 48.931 106.048 49.3164 106.301C49.7018 106.553 50.0026 106.911 50.2188 107.375C50.4349 107.839 50.543 108.385 50.543 109.016C50.543 109.651 50.4349 110.202 50.2188 110.668C50.0026 111.132 49.7031 111.491 49.3203 111.746C48.9375 111.999 48.4961 112.125 47.9961 112.125C47.6107 112.125 47.3021 112.061 47.0703 111.934C46.8385 111.803 46.6602 111.656 46.5352 111.492C46.4102 111.326 46.3138 111.187 46.2461 111.078H46.1367V112H45.2461ZM46.1523 109C46.1523 109.453 46.2188 109.853 46.3516 110.199C46.4844 110.543 46.6784 110.812 46.9336 111.008C47.1888 111.201 47.5013 111.297 47.8711 111.297C48.2565 111.297 48.5781 111.195 48.8359 110.992C49.0964 110.786 49.2917 110.51 49.4219 110.164C49.5547 109.815 49.6211 109.427 49.6211 109C49.6211 108.578 49.556 108.198 49.4258 107.859C49.2982 107.518 49.1042 107.249 48.8438 107.051C48.5859 106.85 48.2617 106.75 47.8711 106.75C47.4961 106.75 47.181 106.845 46.9258 107.035C46.6706 107.223 46.4779 107.486 46.3477 107.824C46.2174 108.16 46.1523 108.552 46.1523 109ZM54.4688 112.125C53.8906 112.125 53.3919 111.997 52.9727 111.742C52.556 111.484 52.2344 111.125 52.0078 110.664C51.7839 110.201 51.6719 109.661 51.6719 109.047C51.6719 108.432 51.7839 107.891 52.0078 107.422C52.2344 106.951 52.5495 106.583 52.9531 106.32C53.3594 106.055 53.8333 105.922 54.375 105.922C54.6875 105.922 54.9961 105.974 55.3008 106.078C55.6055 106.182 55.8828 106.352 56.1328 106.586C56.3828 106.818 56.582 107.125 56.7305 107.508C56.8789 107.891 56.9531 108.362 56.9531 108.922V109.312H52.3281V108.516H56.0156C56.0156 108.177 55.9479 107.875 55.8125 107.609C55.6797 107.344 55.4896 107.134 55.2422 106.98C54.9974 106.827 54.7083 106.75 54.375 106.75C54.0078 106.75 53.6901 106.841 53.4219 107.023C53.1563 107.203 52.9518 107.437 52.8086 107.727C52.6654 108.016 52.5938 108.326 52.5938 108.656V109.188C52.5938 109.641 52.6719 110.025 52.8281 110.34C52.987 110.652 53.207 110.891 53.4883 111.055C53.7695 111.216 54.0964 111.297 54.4688 111.297C54.7109 111.297 54.9297 111.263 55.125 111.195C55.3229 111.125 55.4935 111.021 55.6367 110.883C55.7799 110.742 55.8906 110.568 55.9688 110.359L56.8594 110.609C56.7656 110.911 56.6081 111.177 56.3867 111.406C56.1654 111.633 55.8919 111.81 55.5664 111.937C55.2409 112.063 54.875 112.125 54.4688 112.125ZM59.2773 104V112H58.3555V104H59.2773ZM38.5781 125.125C38.0781 125.125 37.6367 124.999 37.2539 124.746C36.8711 124.491 36.5716 124.132 36.3555 123.668C36.1393 123.202 36.0313 122.651 36.0313 122.016C36.0313 121.385 36.1393 120.839 36.3555 120.375C36.5716 119.911 36.8724 119.553 37.2578 119.301C37.6432 119.048 38.0885 118.922 38.5937 118.922C38.9844 118.922 39.293 118.987 39.5195 119.117C39.7487 119.245 39.9232 119.391 40.043 119.555C40.1654 119.716 40.2604 119.849 40.3281 119.953H40.4063V117H41.3281V125H40.4375V124.078H40.3281C40.2604 124.187 40.1641 124.326 40.0391 124.492C39.9141 124.656 39.7357 124.803 39.5039 124.934C39.2721 125.061 38.9635 125.125 38.5781 125.125ZM38.7031 124.297C39.0729 124.297 39.3854 124.201 39.6406 124.008C39.8958 123.812 40.0898 123.543 40.2227 123.199C40.3555 122.853 40.4219 122.453 40.4219 122C40.4219 121.552 40.3568 121.16 40.2266 120.824C40.0964 120.486 39.9036 120.223 39.6484 120.035C39.3932 119.845 39.0781 119.75 38.7031 119.75C38.3125 119.75 37.987 119.85 37.7266 120.051C37.4688 120.249 37.2747 120.518 37.1445 120.859C37.0169 121.198 36.9531 121.578 36.9531 122C36.9531 122.427 37.0182 122.815 37.1484 123.164C37.2813 123.51 37.4766 123.786 37.7344 123.992C37.9948 124.195 38.3177 124.297 38.7031 124.297ZM45.6602 125.125C45.082 125.125 44.5833 124.997 44.1641 124.742C43.7474 124.484 43.4258 124.125 43.1992 123.664C42.9753 123.201 42.8633 122.661 42.8633 122.047C42.8633 121.432 42.9753 120.891 43.1992 120.422C43.4258 119.951 43.7409 119.583 44.1445 119.32C44.5508 119.055 45.0247 118.922 45.5664 118.922C45.8789 118.922 46.1875 118.974 46.4922 119.078C46.7969 119.182 47.0742 119.352 47.3242 119.586C47.5742 119.818 47.7734 120.125 47.9219 120.508C48.0703 120.891 48.1445 121.362 48.1445 121.922V122.312H43.5195V121.516H47.207C47.207 121.177 47.1393 120.875 47.0039 120.609C46.8711 120.344 46.681 120.134 46.4336 119.98C46.1888 119.827 45.8997 119.75 45.5664 119.75C45.1992 119.75 44.8815 119.841 44.6133 120.023C44.3477 120.203 44.1432 120.437 44 120.727C43.8568 121.016 43.7852 121.326 43.7852 121.656V122.188C43.7852 122.641 43.8633 123.025 44.0195 123.34C44.1784 123.652 44.3984 123.891 44.6797 124.055C44.9609 124.216 45.2878 124.297 45.6602 124.297C45.9023 124.297 46.1211 124.263 46.3164 124.195C46.5143 124.125 46.6849 124.021 46.8281 123.883C46.9714 123.742 47.082 123.568 47.1602 123.359L48.0508 123.609C47.957 123.911 47.7995 124.177 47.5781 124.406C47.3568 124.633 47.0833 124.81 46.7578 124.937C46.4323 125.063 46.0664 125.125 45.6602 125.125ZM52.2188 119V119.781H48.9844V119H52.2188ZM49.9531 125V118.172C49.9531 117.828 50.0339 117.542 50.1953 117.312C50.3568 117.083 50.5664 116.911 50.8242 116.797C51.082 116.682 51.3542 116.625 51.6406 116.625C51.8672 116.625 52.0521 116.643 52.1953 116.68C52.3385 116.716 52.4453 116.75 52.5156 116.781L52.25 117.578C52.2031 117.562 52.138 117.543 52.0547 117.52C51.974 117.496 51.8672 117.484 51.7344 117.484C51.4297 117.484 51.2096 117.561 51.0742 117.715C50.9414 117.868 50.875 118.094 50.875 118.391V125H49.9531ZM55.1045 125.141C54.7243 125.141 54.3792 125.069 54.0693 124.926C53.7594 124.78 53.5133 124.57 53.3311 124.297C53.1488 124.021 53.0576 123.687 53.0576 123.297C53.0576 122.953 53.1253 122.674 53.2607 122.461C53.3962 122.245 53.5771 122.076 53.8037 121.953C54.0303 121.831 54.2803 121.74 54.5537 121.68C54.8298 121.617 55.1071 121.568 55.3857 121.531C55.7503 121.484 56.0459 121.449 56.2725 121.426C56.5016 121.4 56.6683 121.357 56.7725 121.297C56.8792 121.237 56.9326 121.133 56.9326 120.984V120.953C56.9326 120.568 56.8271 120.268 56.6162 120.055C56.4079 119.841 56.0915 119.734 55.667 119.734C55.2269 119.734 54.8818 119.831 54.6318 120.023C54.3818 120.216 54.2061 120.422 54.1045 120.641L53.2295 120.328C53.3857 119.964 53.5941 119.68 53.8545 119.477C54.1175 119.271 54.404 119.128 54.7139 119.047C55.0264 118.964 55.3337 118.922 55.6357 118.922C55.8285 118.922 56.0498 118.945 56.2998 118.992C56.5524 119.036 56.7959 119.129 57.0303 119.27C57.2673 119.41 57.4639 119.622 57.6201 119.906C57.7764 120.19 57.8545 120.57 57.8545 121.047V125H56.9326V124.187H56.8857C56.8232 124.318 56.7191 124.457 56.5732 124.605C56.4274 124.754 56.2334 124.88 55.9912 124.984C55.749 125.089 55.4535 125.141 55.1045 125.141ZM55.2451 124.312C55.6097 124.312 55.917 124.241 56.167 124.098C56.4196 123.954 56.6097 123.77 56.7373 123.543C56.8675 123.316 56.9326 123.078 56.9326 122.828V121.984C56.8936 122.031 56.8076 122.074 56.6748 122.113C56.5446 122.15 56.3936 122.182 56.2217 122.211C56.0524 122.237 55.887 122.26 55.7256 122.281C55.5667 122.299 55.4378 122.315 55.3389 122.328C55.0993 122.359 54.8753 122.41 54.667 122.48C54.4613 122.548 54.2946 122.651 54.167 122.789C54.042 122.924 53.9795 123.109 53.9795 123.344C53.9795 123.664 54.098 123.906 54.335 124.07C54.5745 124.232 54.8779 124.312 55.2451 124.312ZM63.3184 122.547V119H64.2402V125H63.3184V123.984H63.2559C63.1152 124.289 62.8965 124.548 62.5996 124.762C62.3027 124.973 61.9277 125.078 61.4746 125.078C61.0996 125.078 60.7663 124.996 60.4746 124.832C60.1829 124.665 59.9538 124.415 59.7871 124.082C59.6204 123.746 59.5371 123.323 59.5371 122.812V119H60.459V122.75C60.459 123.187 60.5814 123.536 60.8262 123.797C61.0736 124.057 61.3887 124.187 61.7715 124.187C62.0007 124.187 62.2337 124.129 62.4707 124.012C62.7103 123.895 62.9108 123.715 63.0723 123.473C63.2363 123.23 63.3184 122.922 63.3184 122.547ZM66.8506 117V125H65.9287V117H66.8506ZM71.1484 119V119.781H68.0391V119H71.1484ZM68.9453 117.562H69.8672V123.281C69.8672 123.542 69.9049 123.737 69.9805 123.867C70.0586 123.995 70.1576 124.081 70.2773 124.125C70.3997 124.167 70.5286 124.187 70.6641 124.187C70.7656 124.187 70.849 124.182 70.9141 124.172C70.9792 124.159 71.0313 124.148 71.0703 124.141L71.2578 124.969C71.1953 124.992 71.1081 125.016 70.9961 125.039C70.8841 125.065 70.7422 125.078 70.5703 125.078C70.3099 125.078 70.0547 125.022 69.8047 124.91C69.5573 124.798 69.3516 124.628 69.1875 124.398C69.026 124.169 68.9453 123.88 68.9453 123.531V117.562Z" fill="#B1F7FF"/>
<path d="M88.7119 30.1406V29.2969H93.5244V30.1406H88.7119ZM88.7119 32.4531V31.6094H93.5244V32.4531H88.7119ZM56.8184 43.1406V42.2969H61.6309V43.1406H56.8184ZM56.8184 45.4531V44.6094H61.6309V45.4531H56.8184ZM52.4893 69.1406V68.2969H57.3018V69.1406H52.4893ZM52.4893 71.4531V70.6094H57.3018V71.4531H52.4893ZM58.5479 82.1406V81.2969H63.3604V82.1406H58.5479ZM58.5479 84.4531V83.6094H63.3604V84.4531H58.5479ZM74.4355 95.1406V94.2969H79.248V95.1406H74.4355ZM74.4355 97.4531V96.6094H79.248V97.4531H74.4355ZM61.3408 108.141V107.297H66.1533V108.141H61.3408ZM61.3408 110.453V109.609H66.1533V110.453H61.3408Z" fill="white"/>
<path d="M96.3848 26V28.75H95.5254V26H96.3848ZM98.3848 26V28.75H97.5254V26H98.3848ZM104.931 28L102.712 34H101.774L99.5557 28H100.556L102.212 32.7812H102.274L103.931 28H104.931ZM106.147 34V28H107.069V34H106.147ZM106.616 27C106.437 27 106.282 26.9388 106.151 26.8164C106.024 26.694 105.96 26.5469 105.96 26.375C105.96 26.2031 106.024 26.056 106.151 25.9336C106.282 25.8112 106.437 25.75 106.616 25.75C106.796 25.75 106.95 25.8112 107.077 25.9336C107.207 26.056 107.272 26.2031 107.272 26.375C107.272 26.5469 107.207 26.694 107.077 26.8164C106.95 26.9388 106.796 27 106.616 27ZM111.023 34.125C110.523 34.125 110.082 33.9987 109.699 33.7461C109.316 33.4909 109.017 33.1315 108.801 32.668C108.585 32.2018 108.477 31.651 108.477 31.0156C108.477 30.3854 108.585 29.8385 108.801 29.375C109.017 28.9115 109.318 28.5534 109.703 28.3008C110.089 28.0482 110.534 27.9219 111.039 27.9219C111.43 27.9219 111.738 27.987 111.965 28.1172C112.194 28.2448 112.368 28.3906 112.488 28.5547C112.611 28.7161 112.706 28.849 112.773 28.9531H112.852V26H113.773V34H112.883V33.0781H112.773C112.706 33.1875 112.609 33.3255 112.484 33.4922C112.359 33.6562 112.181 33.8034 111.949 33.9336C111.717 34.0612 111.409 34.125 111.023 34.125ZM111.148 33.2969C111.518 33.2969 111.831 33.2005 112.086 33.0078C112.341 32.8125 112.535 32.543 112.668 32.1992C112.801 31.8529 112.867 31.4531 112.867 31C112.867 30.5521 112.802 30.1602 112.672 29.8242C112.542 29.4857 112.349 29.2227 112.094 29.0352C111.839 28.8451 111.523 28.75 111.148 28.75C110.758 28.75 110.432 28.8503 110.172 29.0508C109.914 29.2487 109.72 29.5182 109.59 29.8594C109.462 30.1979 109.398 30.5781 109.398 31C109.398 31.4271 109.464 31.8151 109.594 32.1641C109.727 32.5104 109.922 32.7865 110.18 32.9922C110.44 33.1953 110.763 33.2969 111.148 33.2969ZM118.105 34.125C117.527 34.125 117.029 33.9974 116.609 33.7422C116.193 33.4844 115.871 33.125 115.645 32.6641C115.421 32.2005 115.309 31.6615 115.309 31.0469C115.309 30.4323 115.421 29.8906 115.645 29.4219C115.871 28.9505 116.186 28.5833 116.59 28.3203C116.996 28.0547 117.47 27.9219 118.012 27.9219C118.324 27.9219 118.633 27.974 118.938 28.0781C119.242 28.1823 119.52 28.3516 119.77 28.5859C120.02 28.8177 120.219 29.125 120.367 29.5078C120.516 29.8906 120.59 30.362 120.59 30.9219V31.3125H115.965V30.5156H119.652C119.652 30.1771 119.585 29.875 119.449 29.6094C119.316 29.3437 119.126 29.1341 118.879 28.9805C118.634 28.8268 118.345 28.75 118.012 28.75C117.645 28.75 117.327 28.8411 117.059 29.0234C116.793 29.2031 116.589 29.4375 116.445 29.7266C116.302 30.0156 116.23 30.3255 116.23 30.6562V31.1875C116.23 31.6406 116.309 32.0247 116.465 32.3398C116.624 32.6523 116.844 32.8906 117.125 33.0547C117.406 33.2161 117.733 33.2969 118.105 33.2969C118.348 33.2969 118.566 33.263 118.762 33.1953C118.96 33.125 119.13 33.0208 119.273 32.8828C119.417 32.7422 119.527 32.5677 119.605 32.3594L120.496 32.6094C120.402 32.9115 120.245 33.1771 120.023 33.4062C119.802 33.6328 119.529 33.8099 119.203 33.9375C118.878 34.0625 118.512 34.125 118.105 34.125ZM124.43 34.125C123.888 34.125 123.413 33.9961 123.004 33.7383C122.598 33.4805 122.28 33.1198 122.051 32.6562C121.824 32.1927 121.711 31.651 121.711 31.0312C121.711 30.4062 121.824 29.8607 122.051 29.3945C122.28 28.9284 122.598 28.5664 123.004 28.3086C123.413 28.0508 123.888 27.9219 124.43 27.9219C124.971 27.9219 125.445 28.0508 125.852 28.3086C126.26 28.5664 126.578 28.9284 126.805 29.3945C127.034 29.8607 127.148 30.4062 127.148 31.0312C127.148 31.651 127.034 32.1927 126.805 32.6562C126.578 33.1198 126.26 33.4805 125.852 33.7383C125.445 33.9961 124.971 34.125 124.43 34.125ZM124.43 33.2969C124.841 33.2969 125.18 33.1914 125.445 32.9805C125.711 32.7695 125.908 32.4922 126.035 32.1484C126.163 31.8047 126.227 31.4323 126.227 31.0312C126.227 30.6302 126.163 30.2565 126.035 29.9102C125.908 29.5638 125.711 29.2839 125.445 29.0703C125.18 28.8568 124.841 28.75 124.43 28.75C124.018 28.75 123.68 28.8568 123.414 29.0703C123.148 29.2839 122.952 29.5638 122.824 29.9102C122.697 30.2565 122.633 30.6302 122.633 31.0312C122.633 31.4323 122.697 31.8047 122.824 32.1484C122.952 32.4922 123.148 32.7695 123.414 32.9805C123.68 33.1914 124.018 33.2969 124.43 33.2969ZM129.228 34.0625C129.035 34.0625 128.869 33.9935 128.731 33.8555C128.593 33.7174 128.524 33.5521 128.524 33.3594C128.524 33.1667 128.593 33.0013 128.731 32.8633C128.869 32.7253 129.035 32.6562 129.228 32.6562C129.42 32.6562 129.586 32.7253 129.724 32.8633C129.862 33.0013 129.931 33.1667 129.931 33.3594C129.931 33.487 129.898 33.6042 129.833 33.7109C129.771 33.8177 129.686 33.9036 129.579 33.9687C129.475 34.0313 129.358 34.0625 129.228 34.0625ZM131.585 34V28H132.476V28.9375H132.554C132.679 28.6172 132.881 28.3685 133.159 28.1914C133.438 28.0117 133.772 27.9219 134.163 27.9219C134.559 27.9219 134.888 28.0117 135.151 28.1914C135.417 28.3685 135.624 28.6172 135.772 28.9375H135.835C135.989 28.6276 136.219 28.3815 136.526 28.1992C136.834 28.0143 137.202 27.9219 137.632 27.9219C138.168 27.9219 138.607 28.0898 138.948 28.4258C139.289 28.7591 139.46 29.2786 139.46 29.9844V34H138.538V29.9844C138.538 29.5417 138.417 29.2253 138.175 29.0352C137.933 28.8451 137.647 28.75 137.319 28.75C136.897 28.75 136.571 28.8776 136.339 29.1328C136.107 29.3854 135.991 29.7057 135.991 30.0937V34H135.054V29.8906C135.054 29.5495 134.943 29.2747 134.722 29.0664C134.5 28.8555 134.215 28.75 133.866 28.75C133.627 28.75 133.403 28.8138 133.194 28.9414C132.989 29.069 132.822 29.2461 132.694 29.4727C132.569 29.6966 132.507 29.9557 132.507 30.25V34H131.585ZM141.146 36.25V28H142.036V28.9531H142.146C142.213 28.849 142.307 28.7161 142.427 28.5547C142.549 28.3906 142.724 28.2448 142.95 28.1172C143.179 27.987 143.489 27.9219 143.88 27.9219C144.385 27.9219 144.83 28.0482 145.216 28.3008C145.601 28.5534 145.902 28.9115 146.118 29.375C146.334 29.8385 146.442 30.3854 146.442 31.0156C146.442 31.651 146.334 32.2018 146.118 32.668C145.902 33.1315 145.603 33.4909 145.22 33.7461C144.837 33.9987 144.396 34.125 143.896 34.125C143.51 34.125 143.201 34.0612 142.97 33.9336C142.738 33.8034 142.56 33.6562 142.435 33.4922C142.31 33.3255 142.213 33.1875 142.146 33.0781H142.067V36.25H141.146ZM142.052 31C142.052 31.4531 142.118 31.8529 142.251 32.1992C142.384 32.543 142.578 32.8125 142.833 33.0078C143.088 33.2005 143.401 33.2969 143.771 33.2969C144.156 33.2969 144.478 33.1953 144.735 32.9922C144.996 32.7865 145.191 32.5104 145.321 32.1641C145.454 31.8151 145.521 31.4271 145.521 31C145.521 30.5781 145.455 30.1979 145.325 29.8594C145.198 29.5182 145.004 29.2487 144.743 29.0508C144.485 28.8503 144.161 28.75 143.771 28.75C143.396 28.75 143.08 28.8451 142.825 29.0352C142.57 29.2227 142.377 29.4857 142.247 29.8242C142.117 30.1602 142.052 30.5521 142.052 31ZM147.646 32.3594V31.5625L151.161 26H151.739V27.2344H151.349L148.692 31.4375V31.5H153.427V32.3594H147.646ZM151.411 34V32.1172V31.7461V26H152.333V34H151.411ZM155.703 26V28.75H154.844V26H155.703ZM157.703 26V28.75H156.844V26H157.703ZM64.4912 39V41.75H63.6318V39H64.4912ZM66.4912 39V41.75H65.6318V39H66.4912ZM73.0371 41L70.8184 47H69.8809L67.6621 41H68.6621L70.3184 45.7812H70.3809L72.0371 41H73.0371ZM74.2539 47V41H75.1758V47H74.2539ZM74.7227 40C74.543 40 74.388 39.9388 74.2578 39.8164C74.1302 39.694 74.0664 39.5469 74.0664 39.375C74.0664 39.2031 74.1302 39.056 74.2578 38.9336C74.388 38.8112 74.543 38.75 74.7227 38.75C74.9023 38.75 75.056 38.8112 75.1836 38.9336C75.3138 39.056 75.3789 39.2031 75.3789 39.375C75.3789 39.5469 75.3138 39.694 75.1836 39.8164C75.056 39.9388 74.9023 40 74.7227 40ZM79.1299 47.125C78.6299 47.125 78.1885 46.9987 77.8057 46.7461C77.4229 46.4909 77.1234 46.1315 76.9072 45.668C76.6911 45.2018 76.583 44.651 76.583 44.0156C76.583 43.3854 76.6911 42.8385 76.9072 42.375C77.1234 41.9115 77.4242 41.5534 77.8096 41.3008C78.195 41.0482 78.6403 40.9219 79.1455 40.9219C79.5361 40.9219 79.8447 40.987 80.0713 41.1172C80.3005 41.2448 80.4749 41.3906 80.5947 41.5547C80.7171 41.7161 80.8122 41.849 80.8799 41.9531H80.958V39H81.8799V47H80.9893V46.0781H80.8799C80.8122 46.1875 80.7158 46.3255 80.5908 46.4922C80.4658 46.6562 80.2874 46.8034 80.0557 46.9336C79.8239 47.0612 79.5153 47.125 79.1299 47.125ZM79.2549 46.2969C79.6247 46.2969 79.9372 46.2005 80.1924 46.0078C80.4476 45.8125 80.6416 45.543 80.7744 45.1992C80.9072 44.8529 80.9736 44.4531 80.9736 44C80.9736 43.5521 80.9085 43.1602 80.7783 42.8242C80.6481 42.4857 80.4554 42.2227 80.2002 42.0352C79.945 41.8451 79.6299 41.75 79.2549 41.75C78.8643 41.75 78.5387 41.8503 78.2783 42.0508C78.0205 42.2487 77.8265 42.5182 77.6963 42.8594C77.5687 43.1979 77.5049 43.5781 77.5049 44C77.5049 44.4271 77.57 44.8151 77.7002 45.1641C77.833 45.5104 78.0283 45.7865 78.2861 45.9922C78.5465 46.1953 78.8695 46.2969 79.2549 46.2969ZM86.2119 47.125C85.6338 47.125 85.1351 46.9974 84.7158 46.7422C84.2992 46.4844 83.9775 46.125 83.751 45.6641C83.527 45.2005 83.415 44.6615 83.415 44.0469C83.415 43.4323 83.527 42.8906 83.751 42.4219C83.9775 41.9505 84.2926 41.5833 84.6963 41.3203C85.1025 41.0547 85.5765 40.9219 86.1182 40.9219C86.4307 40.9219 86.7393 40.974 87.0439 41.0781C87.3486 41.1823 87.626 41.3516 87.876 41.5859C88.126 41.8177 88.3252 42.125 88.4736 42.5078C88.6221 42.8906 88.6963 43.362 88.6963 43.9219V44.3125H84.0713V43.5156H87.7588C87.7588 43.1771 87.6911 42.875 87.5557 42.6094C87.4229 42.3437 87.2327 42.1341 86.9854 41.9805C86.7406 41.8268 86.4515 41.75 86.1182 41.75C85.751 41.75 85.4333 41.8411 85.165 42.0234C84.8994 42.2031 84.695 42.4375 84.5518 42.7266C84.4085 43.0156 84.3369 43.3255 84.3369 43.6562V44.1875C84.3369 44.6406 84.415 45.0247 84.5713 45.3398C84.7301 45.6523 84.9502 45.8906 85.2314 46.0547C85.5127 46.2161 85.8395 46.2969 86.2119 46.2969C86.4541 46.2969 86.6729 46.263 86.8682 46.1953C87.0661 46.125 87.2367 46.0208 87.3799 45.8828C87.5231 45.7422 87.6338 45.5677 87.7119 45.3594L88.6025 45.6094C88.5088 45.9115 88.3512 46.1771 88.1299 46.4062C87.9085 46.6328 87.6351 46.8099 87.3096 46.9375C86.984 47.0625 86.6182 47.125 86.2119 47.125ZM92.5361 47.125C91.9945 47.125 91.5192 46.9961 91.1104 46.7383C90.7041 46.4805 90.3864 46.1198 90.1572 45.6562C89.9307 45.1927 89.8174 44.651 89.8174 44.0312C89.8174 43.4062 89.9307 42.8607 90.1572 42.3945C90.3864 41.9284 90.7041 41.5664 91.1104 41.3086C91.5192 41.0508 91.9945 40.9219 92.5361 40.9219C93.0778 40.9219 93.5518 41.0508 93.958 41.3086C94.3669 41.5664 94.6846 41.9284 94.9111 42.3945C95.1403 42.8607 95.2549 43.4062 95.2549 44.0312C95.2549 44.651 95.1403 45.1927 94.9111 45.6562C94.6846 46.1198 94.3669 46.4805 93.958 46.7383C93.5518 46.9961 93.0778 47.125 92.5361 47.125ZM92.5361 46.2969C92.9476 46.2969 93.2861 46.1914 93.5518 45.9805C93.8174 45.7695 94.014 45.4922 94.1416 45.1484C94.2692 44.8047 94.333 44.4323 94.333 44.0312C94.333 43.6302 94.2692 43.2565 94.1416 42.9102C94.014 42.5638 93.8174 42.2839 93.5518 42.0703C93.2861 41.8568 92.9476 41.75 92.5361 41.75C92.1247 41.75 91.7861 41.8568 91.5205 42.0703C91.2549 42.2839 91.0583 42.5638 90.9307 42.9102C90.8031 43.2565 90.7393 43.6302 90.7393 44.0312C90.7393 44.4323 90.8031 44.8047 90.9307 45.1484C91.0583 45.4922 91.2549 45.7695 91.5205 45.9805C91.7861 46.1914 92.1247 46.2969 92.5361 46.2969ZM99.4902 38.625L96.9121 48.2031H96.0684L98.6465 38.625H99.4902ZM100.583 47V41H101.474V41.9375H101.552C101.677 41.6172 101.879 41.3685 102.157 41.1914C102.436 41.0117 102.771 40.9219 103.161 40.9219C103.557 40.9219 103.886 41.0117 104.149 41.1914C104.415 41.3685 104.622 41.6172 104.771 41.9375H104.833C104.987 41.6276 105.217 41.3815 105.524 41.1992C105.832 41.0143 106.2 40.9219 106.63 40.9219C107.166 40.9219 107.605 41.0898 107.946 41.4258C108.287 41.7591 108.458 42.2786 108.458 42.9844V47H107.536V42.9844C107.536 42.5417 107.415 42.2253 107.173 42.0352C106.931 41.8451 106.646 41.75 106.317 41.75C105.896 41.75 105.569 41.8776 105.337 42.1328C105.105 42.3854 104.989 42.7057 104.989 43.0937V47H104.052V42.8906C104.052 42.5495 103.941 42.2747 103.72 42.0664C103.498 41.8555 103.213 41.75 102.864 41.75C102.625 41.75 102.401 41.8138 102.192 41.9414C101.987 42.069 101.82 42.2461 101.692 42.4727C101.567 42.6966 101.505 42.9557 101.505 43.25V47H100.583ZM110.144 49.25V41H111.034V41.9531H111.144C111.211 41.849 111.305 41.7161 111.425 41.5547C111.547 41.3906 111.722 41.2448 111.948 41.1172C112.177 40.987 112.487 40.9219 112.878 40.9219C113.383 40.9219 113.828 41.0482 114.214 41.3008C114.599 41.5534 114.9 41.9115 115.116 42.375C115.332 42.8385 115.44 43.3854 115.44 44.0156C115.44 44.651 115.332 45.2018 115.116 45.668C114.9 46.1315 114.601 46.4909 114.218 46.7461C113.835 46.9987 113.394 47.125 112.894 47.125C112.508 47.125 112.2 47.0612 111.968 46.9336C111.736 46.8034 111.558 46.6562 111.433 46.4922C111.308 46.3255 111.211 46.1875 111.144 46.0781H111.065V49.25H110.144ZM111.05 44C111.05 44.4531 111.116 44.8529 111.249 45.1992C111.382 45.543 111.576 45.8125 111.831 46.0078C112.086 46.2005 112.399 46.2969 112.769 46.2969C113.154 46.2969 113.476 46.1953 113.733 45.9922C113.994 45.7865 114.189 45.5104 114.319 45.1641C114.452 44.8151 114.519 44.4271 114.519 44C114.519 43.5781 114.453 43.1979 114.323 42.8594C114.196 42.5182 114.002 42.2487 113.741 42.0508C113.483 41.8503 113.159 41.75 112.769 41.75C112.394 41.75 112.078 41.8451 111.823 42.0352C111.568 42.2227 111.375 42.4857 111.245 42.8242C111.115 43.1602 111.05 43.5521 111.05 44ZM116.644 45.3594V44.5625L120.159 39H120.737V40.2344H120.347L117.69 44.4375V44.5H122.425V45.3594H116.644ZM120.409 47V45.1172V44.7461V39H121.331V47H120.409ZM124.701 39V41.75H123.842V39H124.701ZM126.701 39V41.75H125.842V39H126.701ZM60.1621 65V67.75H59.3027V65H60.1621ZM62.1621 65V67.75H61.3027V65H62.1621ZM67.583 70.5469V67H68.5049V73H67.583V71.9844H67.5205C67.3799 72.2891 67.1611 72.5482 66.8643 72.7617C66.5674 72.9727 66.1924 73.0781 65.7393 73.0781C65.3643 73.0781 65.0309 72.9961 64.7393 72.832C64.4476 72.6654 64.2184 72.4154 64.0518 72.082C63.8851 71.7461 63.8018 71.3229 63.8018 70.8125V67H64.7236V70.75C64.7236 71.1875 64.846 71.5365 65.0908 71.7969C65.3382 72.0573 65.6533 72.1875 66.0361 72.1875C66.2653 72.1875 66.4984 72.1289 66.7354 72.0117C66.9749 71.8945 67.1755 71.7148 67.3369 71.4727C67.501 71.2305 67.583 70.9219 67.583 70.5469ZM71.1152 69.3906V73H70.1934V67H71.084V67.9375H71.1621C71.3027 67.6328 71.5163 67.388 71.8027 67.2031C72.0892 67.0156 72.459 66.9219 72.9121 66.9219C73.3184 66.9219 73.6738 67.0052 73.9785 67.1719C74.2832 67.3359 74.5202 67.5859 74.6895 67.9219C74.8587 68.2552 74.9434 68.6771 74.9434 69.1875V73H74.0215V69.25C74.0215 68.7786 73.8991 68.4115 73.6543 68.1484C73.4095 67.8828 73.0736 67.75 72.6465 67.75C72.3522 67.75 72.0892 67.8138 71.8574 67.9414C71.6283 68.069 71.4473 68.2552 71.3145 68.5C71.1816 68.7448 71.1152 69.0417 71.1152 69.3906ZM78.8936 73.125C78.3936 73.125 77.9521 72.9987 77.5693 72.7461C77.1865 72.4909 76.887 72.1315 76.6709 71.668C76.4548 71.2018 76.3467 70.651 76.3467 70.0156C76.3467 69.3854 76.4548 68.8385 76.6709 68.375C76.887 67.9115 77.1878 67.5534 77.5732 67.3008C77.9587 67.0482 78.404 66.9219 78.9092 66.9219C79.2998 66.9219 79.6084 66.987 79.835 67.1172C80.0641 67.2448 80.2386 67.3906 80.3584 67.5547C80.4808 67.7161 80.5758 67.849 80.6436 67.9531H80.7217V65H81.6436V73H80.7529V72.0781H80.6436C80.5758 72.1875 80.4795 72.3255 80.3545 72.4922C80.2295 72.6562 80.0511 72.8034 79.8193 72.9336C79.5876 73.0612 79.279 73.125 78.8936 73.125ZM79.0186 72.2969C79.3883 72.2969 79.7008 72.2005 79.9561 72.0078C80.2113 71.8125 80.4053 71.543 80.5381 71.1992C80.6709 70.8529 80.7373 70.4531 80.7373 70C80.7373 69.5521 80.6722 69.1602 80.542 68.8242C80.4118 68.4857 80.2191 68.2227 79.9639 68.0352C79.7087 67.8451 79.3936 67.75 79.0186 67.75C78.6279 67.75 78.3024 67.8503 78.042 68.0508C77.7842 68.2487 77.5902 68.5182 77.46 68.8594C77.3324 69.1979 77.2686 69.5781 77.2686 70C77.2686 70.4271 77.3337 70.8151 77.4639 71.1641C77.5967 71.5104 77.792 71.7865 78.0498 71.9922C78.3102 72.1953 78.6331 72.2969 79.0186 72.2969ZM85.9756 73.125C85.3975 73.125 84.8988 72.9974 84.4795 72.7422C84.0628 72.4844 83.7412 72.125 83.5146 71.6641C83.2907 71.2005 83.1787 70.6615 83.1787 70.0469C83.1787 69.4323 83.2907 68.8906 83.5146 68.4219C83.7412 67.9505 84.0563 67.5833 84.46 67.3203C84.8662 67.0547 85.3402 66.9219 85.8818 66.9219C86.1943 66.9219 86.5029 66.974 86.8076 67.0781C87.1123 67.1823 87.3896 67.3516 87.6396 67.5859C87.8896 67.8177 88.0889 68.125 88.2373 68.5078C88.3857 68.8906 88.46 69.362 88.46 69.9219V70.3125H83.835V69.5156H87.5225C87.5225 69.1771 87.4548 68.875 87.3193 68.6094C87.1865 68.3437 86.9964 68.1341 86.749 67.9805C86.5042 67.8268 86.2152 67.75 85.8818 67.75C85.5146 67.75 85.1969 67.8411 84.9287 68.0234C84.6631 68.2031 84.4587 68.4375 84.3154 68.7266C84.1722 69.0156 84.1006 69.3255 84.1006 69.6562V70.1875C84.1006 70.6406 84.1787 71.0247 84.335 71.3398C84.4938 71.6523 84.7139 71.8906 84.9951 72.0547C85.2764 72.2161 85.6032 72.2969 85.9756 72.2969C86.2178 72.2969 86.4365 72.263 86.6318 72.1953C86.8298 72.125 87.0003 72.0208 87.1436 71.8828C87.2868 71.7422 87.3975 71.5677 87.4756 71.3594L88.3662 71.6094C88.2725 71.9115 88.1149 72.1771 87.8936 72.4062C87.6722 72.6328 87.3988 72.8099 87.0732 72.9375C86.7477 73.0625 86.3818 73.125 85.9756 73.125ZM89.8623 73V67H90.7529V67.9062H90.8154C90.9248 67.6094 91.1227 67.3685 91.4092 67.1836C91.6956 66.9987 92.0186 66.9062 92.3779 66.9062C92.4456 66.9062 92.5303 66.9076 92.6318 66.9102C92.7334 66.9128 92.8102 66.9167 92.8623 66.9219V67.8594C92.8311 67.8516 92.7594 67.8398 92.6475 67.8242C92.5381 67.806 92.4222 67.7969 92.2998 67.7969C92.0081 67.7969 91.7477 67.8581 91.5186 67.9805C91.292 68.1003 91.1123 68.2669 90.9795 68.4805C90.8493 68.6914 90.7842 68.9323 90.7842 69.2031V73H89.8623ZM96.9404 67V67.7812H93.8311V67H96.9404ZM94.7373 65.5625H95.6592V71.2812C95.6592 71.5417 95.6969 71.737 95.7725 71.8672C95.8506 71.9948 95.9495 72.0807 96.0693 72.125C96.1917 72.1667 96.3206 72.1875 96.4561 72.1875C96.5576 72.1875 96.641 72.1823 96.7061 72.1719C96.7712 72.1589 96.8232 72.1484 96.8623 72.1406L97.0498 72.9687C96.9873 72.9922 96.9001 73.0156 96.7881 73.0391C96.6761 73.0651 96.5342 73.0781 96.3623 73.0781C96.1019 73.0781 95.8467 73.0221 95.5967 72.9102C95.3493 72.7982 95.1436 72.6276 94.9795 72.3984C94.818 72.1693 94.7373 71.8802 94.7373 71.5312V65.5625ZM100.778 73.125C100.2 73.125 99.7015 72.9974 99.2822 72.7422C98.8656 72.4844 98.5439 72.125 98.3174 71.6641C98.0934 71.2005 97.9814 70.6615 97.9814 70.0469C97.9814 69.4323 98.0934 68.8906 98.3174 68.4219C98.5439 67.9505 98.859 67.5833 99.2627 67.3203C99.6689 67.0547 100.143 66.9219 100.685 66.9219C100.997 66.9219 101.306 66.974 101.61 67.0781C101.915 67.1823 102.192 67.3516 102.442 67.5859C102.692 67.8177 102.892 68.125 103.04 68.5078C103.188 68.8906 103.263 69.362 103.263 69.9219V70.3125H98.6377V69.5156H102.325C102.325 69.1771 102.257 68.875 102.122 68.6094C101.989 68.3437 101.799 68.1341 101.552 67.9805C101.307 67.8268 101.018 67.75 100.685 67.75C100.317 67.75 99.9997 67.8411 99.7314 68.0234C99.4658 68.2031 99.2614 68.4375 99.1182 68.7266C98.9749 69.0156 98.9033 69.3255 98.9033 69.6562V70.1875C98.9033 70.6406 98.9814 71.0247 99.1377 71.3398C99.2965 71.6523 99.5166 71.8906 99.7979 72.0547C100.079 72.2161 100.406 72.2969 100.778 72.2969C101.021 72.2969 101.239 72.263 101.435 72.1953C101.632 72.125 101.803 72.0208 101.946 71.8828C102.09 71.7422 102.2 71.5677 102.278 71.3594L103.169 71.6094C103.075 71.9115 102.918 72.1771 102.696 72.4062C102.475 72.6328 102.201 72.8099 101.876 72.9375C101.55 73.0625 101.185 73.125 100.778 73.125ZM105.191 67L106.629 69.4531L108.066 67H109.129L107.191 70L109.129 73H108.066L106.629 70.6719L105.191 73H104.129L106.035 70L104.129 67H105.191ZM113.054 67V67.7812H109.944V67H113.054ZM110.851 65.5625H111.772V71.2812C111.772 71.5417 111.81 71.737 111.886 71.8672C111.964 71.9948 112.063 72.0807 112.183 72.125C112.305 72.1667 112.434 72.1875 112.569 72.1875C112.671 72.1875 112.754 72.1823 112.819 72.1719C112.884 72.1589 112.937 72.1484 112.976 72.1406L113.163 72.9687C113.101 72.9922 113.013 73.0156 112.901 73.0391C112.789 73.0651 112.647 73.0781 112.476 73.0781C112.215 73.0781 111.96 73.0221 111.71 72.9102C111.463 72.7982 111.257 72.6276 111.093 72.3984C110.931 72.1693 110.851 71.8802 110.851 71.5312V65.5625ZM116.892 73.125C116.313 73.125 115.815 72.9974 115.396 72.7422C114.979 72.4844 114.657 72.125 114.431 71.6641C114.207 71.2005 114.095 70.6615 114.095 70.0469C114.095 69.4323 114.207 68.8906 114.431 68.4219C114.657 67.9505 114.972 67.5833 115.376 67.3203C115.782 67.0547 116.256 66.9219 116.798 66.9219C117.11 66.9219 117.419 66.974 117.724 67.0781C118.028 67.1823 118.306 67.3516 118.556 67.5859C118.806 67.8177 119.005 68.125 119.153 68.5078C119.302 68.8906 119.376 69.362 119.376 69.9219V70.3125H114.751V69.5156H118.438C118.438 69.1771 118.371 68.875 118.235 68.6094C118.103 68.3437 117.912 68.1341 117.665 67.9805C117.42 67.8268 117.131 67.75 116.798 67.75C116.431 67.75 116.113 67.8411 115.845 68.0234C115.579 68.2031 115.375 68.4375 115.231 68.7266C115.088 69.0156 115.017 69.3255 115.017 69.6562V70.1875C115.017 70.6406 115.095 71.0247 115.251 71.3398C115.41 71.6523 115.63 71.8906 115.911 72.0547C116.192 72.2161 116.519 72.2969 116.892 72.2969C117.134 72.2969 117.353 72.263 117.548 72.1953C117.746 72.125 117.916 72.0208 118.06 71.8828C118.203 71.7422 118.313 71.5677 118.392 71.3594L119.282 71.6094C119.188 71.9115 119.031 72.1771 118.81 72.4062C118.588 72.6328 118.315 72.8099 117.989 72.9375C117.664 73.0625 117.298 73.125 116.892 73.125ZM120.778 73V67H121.669V67.9062H121.731C121.841 67.6094 122.039 67.3685 122.325 67.1836C122.612 66.9987 122.935 66.9062 123.294 66.9062C123.362 66.9062 123.446 66.9076 123.548 66.9102C123.649 66.9128 123.726 66.9167 123.778 66.9219V67.8594C123.747 67.8516 123.675 67.8398 123.563 67.8242C123.454 67.806 123.338 67.7969 123.216 67.7969C122.924 67.7969 122.664 67.8581 122.435 67.9805C122.208 68.1003 122.028 68.2669 121.896 68.4805C121.765 68.6914 121.7 68.9323 121.7 69.2031V73H120.778ZM124.855 73.0625C124.663 73.0625 124.497 72.9935 124.359 72.8555C124.221 72.7174 124.152 72.5521 124.152 72.3594C124.152 72.1667 124.221 72.0013 124.359 71.8633C124.497 71.7253 124.663 71.6562 124.855 71.6562C125.048 71.6562 125.214 71.7253 125.352 71.8633C125.49 72.0013 125.559 72.1667 125.559 72.3594C125.559 72.487 125.526 72.6042 125.461 72.7109C125.398 72.8177 125.314 72.9036 125.207 72.9687C125.103 73.0313 124.986 73.0625 124.855 73.0625ZM132.119 67L129.9 73H128.963L126.744 67H127.744L129.4 71.7812H129.463L131.119 67H132.119ZM135.945 67V67.7812H132.836V67H135.945ZM133.742 65.5625H134.664V71.2812C134.664 71.5417 134.702 71.737 134.777 71.8672C134.855 71.9948 134.954 72.0807 135.074 72.125C135.197 72.1667 135.326 72.1875 135.461 72.1875C135.563 72.1875 135.646 72.1823 135.711 72.1719C135.776 72.1589 135.828 72.1484 135.867 72.1406L136.055 72.9687C135.992 72.9922 135.905 73.0156 135.793 73.0391C135.681 73.0651 135.539 73.0781 135.367 73.0781C135.107 73.0781 134.852 73.0221 134.602 72.9102C134.354 72.7982 134.148 72.6276 133.984 72.3984C133.823 72.1693 133.742 71.8802 133.742 71.5312V65.5625ZM139.941 67V67.7812H136.832V67H139.941ZM137.738 65.5625H138.66V71.2812C138.66 71.5417 138.698 71.737 138.773 71.8672C138.852 71.9948 138.951 72.0807 139.07 72.125C139.193 72.1667 139.322 72.1875 139.457 72.1875C139.559 72.1875 139.642 72.1823 139.707 72.1719C139.772 72.1589 139.824 72.1484 139.863 72.1406L140.051 72.9687C139.988 72.9922 139.901 73.0156 139.789 73.0391C139.677 73.0651 139.535 73.0781 139.363 73.0781C139.103 73.0781 138.848 73.0221 138.598 72.9102C138.35 72.7982 138.145 72.6276 137.98 72.3984C137.819 72.1693 137.738 71.8802 137.738 71.5312V65.5625ZM142.125 65V67.75H141.266V65H142.125ZM144.125 65V67.75H143.266V65H144.125ZM66.2207 78V80.75H65.3613V78H66.2207ZM68.2207 78V80.75H67.3613V78H68.2207ZM74.1104 81.3437L73.2822 81.5781C73.2301 81.4401 73.1533 81.306 73.0518 81.1758C72.9528 81.043 72.8174 80.9336 72.6455 80.8477C72.4736 80.7617 72.2536 80.7187 71.9854 80.7187C71.6182 80.7187 71.3122 80.8034 71.0674 80.9727C70.8252 81.1393 70.7041 81.3516 70.7041 81.6094C70.7041 81.8385 70.7874 82.0195 70.9541 82.1523C71.1208 82.2852 71.3812 82.3958 71.7354 82.4844L72.626 82.7031C73.1624 82.8333 73.5622 83.0326 73.8252 83.3008C74.0882 83.5664 74.2197 83.9089 74.2197 84.3281C74.2197 84.6719 74.1208 84.9792 73.9229 85.25C73.7275 85.5208 73.4541 85.7344 73.1025 85.8906C72.751 86.0469 72.3421 86.125 71.876 86.125C71.264 86.125 70.7575 85.9922 70.3564 85.7266C69.9554 85.4609 69.7015 85.0729 69.5947 84.5625L70.4697 84.3437C70.5531 84.6667 70.7106 84.9089 70.9424 85.0703C71.1768 85.2318 71.4827 85.3125 71.8604 85.3125C72.29 85.3125 72.6312 85.2214 72.8838 85.0391C73.139 84.8542 73.2666 84.6328 73.2666 84.375C73.2666 84.1667 73.1937 83.9922 73.0479 83.8516C72.902 83.7083 72.6781 83.6016 72.376 83.5312L71.376 83.2969C70.8265 83.1667 70.4229 82.9648 70.165 82.6914C69.9098 82.4154 69.7822 82.0703 69.7822 81.6562C69.7822 81.3177 69.8773 81.0182 70.0674 80.7578C70.2601 80.4974 70.5218 80.293 70.8525 80.1445C71.1859 79.9961 71.5635 79.9219 71.9854 79.9219C72.5791 79.9219 73.0452 80.0521 73.3838 80.3125C73.7249 80.5729 73.9671 80.9167 74.1104 81.3437ZM79.3887 83.5469V80H80.3105V86H79.3887V84.9844H79.3262C79.1855 85.2891 78.9668 85.5482 78.6699 85.7617C78.373 85.9727 77.998 86.0781 77.5449 86.0781C77.1699 86.0781 76.8366 85.9961 76.5449 85.832C76.2533 85.6654 76.0241 85.4154 75.8574 85.082C75.6908 84.7461 75.6074 84.3229 75.6074 83.8125V80H76.5293V83.75C76.5293 84.1875 76.6517 84.5365 76.8965 84.7969C77.1439 85.0573 77.459 85.1875 77.8418 85.1875C78.071 85.1875 78.304 85.1289 78.541 85.0117C78.7806 84.8945 78.9811 84.7148 79.1426 84.4727C79.3066 84.2305 79.3887 83.9219 79.3887 83.5469ZM82.124 86V78H83.0459V80.9531H83.124C83.1917 80.849 83.2855 80.7161 83.4053 80.5547C83.5277 80.3906 83.7021 80.2448 83.9287 80.1172C84.1579 79.987 84.4678 79.9219 84.8584 79.9219C85.3636 79.9219 85.8089 80.0482 86.1943 80.3008C86.5798 80.5534 86.8805 80.9115 87.0967 81.375C87.3128 81.8385 87.4209 82.3854 87.4209 83.0156C87.4209 83.651 87.3128 84.2018 87.0967 84.668C86.8805 85.1315 86.5811 85.4909 86.1982 85.7461C85.8154 85.9987 85.374 86.125 84.874 86.125C84.4886 86.125 84.18 86.0612 83.9482 85.9336C83.7165 85.8034 83.5381 85.6562 83.4131 85.4922C83.2881 85.3255 83.1917 85.1875 83.124 85.0781H83.0146V86H82.124ZM83.0303 83C83.0303 83.4531 83.0967 83.8529 83.2295 84.1992C83.3623 84.543 83.5563 84.8125 83.8115 85.0078C84.0667 85.2005 84.3792 85.2969 84.749 85.2969C85.1344 85.2969 85.4561 85.1953 85.7139 84.9922C85.9743 84.7865 86.1696 84.5104 86.2998 84.1641C86.4326 83.8151 86.499 83.4271 86.499 83C86.499 82.5781 86.4339 82.1979 86.3037 81.8594C86.1761 81.5182 85.9821 81.2487 85.7217 81.0508C85.4639 80.8503 85.1396 80.75 84.749 80.75C84.374 80.75 84.0589 80.8451 83.8037 81.0352C83.5485 81.2227 83.3558 81.4857 83.2256 81.8242C83.0954 82.1602 83.0303 82.5521 83.0303 83ZM91.4404 80V80.7812H88.3311V80H91.4404ZM89.2373 78.5625H90.1592V84.2812C90.1592 84.5417 90.1969 84.737 90.2725 84.8672C90.3506 84.9948 90.4495 85.0807 90.5693 85.125C90.6917 85.1667 90.8206 85.1875 90.9561 85.1875C91.0576 85.1875 91.141 85.1823 91.2061 85.1719C91.2712 85.1589 91.3232 85.1484 91.3623 85.1406L91.5498 85.9687C91.4873 85.9922 91.4001 86.0156 91.2881 86.0391C91.1761 86.0651 91.0342 86.0781 90.8623 86.0781C90.6019 86.0781 90.3467 86.0221 90.0967 85.9102C89.8493 85.7982 89.6436 85.6276 89.4795 85.3984C89.318 85.1693 89.2373 84.8802 89.2373 84.5312V78.5625ZM92.8271 86V80H93.749V86H92.8271ZM93.2959 79C93.1162 79 92.9613 78.9388 92.8311 78.8164C92.7035 78.694 92.6396 78.5469 92.6396 78.375C92.6396 78.2031 92.7035 78.056 92.8311 77.9336C92.9613 77.8112 93.1162 77.75 93.2959 77.75C93.4756 77.75 93.6292 77.8112 93.7568 77.9336C93.887 78.056 93.9521 78.2031 93.9521 78.375C93.9521 78.5469 93.887 78.694 93.7568 78.8164C93.6292 78.9388 93.4756 79 93.2959 79ZM98.0469 80V80.7812H94.9375V80H98.0469ZM95.8438 78.5625H96.7656V84.2812C96.7656 84.5417 96.8034 84.737 96.8789 84.8672C96.957 84.9948 97.056 85.0807 97.1758 85.125C97.2982 85.1667 97.4271 85.1875 97.5625 85.1875C97.6641 85.1875 97.7474 85.1823 97.8125 85.1719C97.8776 85.1589 97.9297 85.1484 97.9688 85.1406L98.1563 85.9687C98.0938 85.9922 98.0065 86.0156 97.8945 86.0391C97.7826 86.0651 97.6406 86.0781 97.4688 86.0781C97.2083 86.0781 96.9531 86.0221 96.7031 85.9102C96.4557 85.7982 96.25 85.6276 96.0859 85.3984C95.9245 85.1693 95.8438 84.8802 95.8438 84.5312V78.5625ZM100.484 78V86H99.5625V78H100.484ZM104.688 86.125C104.11 86.125 103.612 85.9974 103.192 85.7422C102.776 85.4844 102.454 85.125 102.228 84.6641C102.004 84.2005 101.892 83.6615 101.892 83.0469C101.892 82.4323 102.004 81.8906 102.228 81.4219C102.454 80.9505 102.769 80.5833 103.173 80.3203C103.579 80.0547 104.053 79.9219 104.595 79.9219C104.907 79.9219 105.216 79.974 105.521 80.0781C105.825 80.1823 106.103 80.3516 106.353 80.5859C106.603 80.8177 106.802 81.125 106.95 81.5078C107.099 81.8906 107.173 82.362 107.173 82.9219V83.3125H102.548V82.5156H106.235C106.235 82.1771 106.168 81.875 106.032 81.6094C105.899 81.3437 105.709 81.1341 105.462 80.9805C105.217 80.8268 104.928 80.75 104.595 80.75C104.228 80.75 103.91 80.8411 103.642 81.0234C103.376 81.2031 103.172 81.4375 103.028 81.7266C102.885 82.0156 102.813 82.3255 102.813 82.6562V83.1875C102.813 83.6406 102.892 84.0247 103.048 84.3398C103.207 84.6523 103.427 84.8906 103.708 85.0547C103.989 85.2161 104.316 85.2969 104.688 85.2969C104.931 85.2969 105.149 85.263 105.345 85.1953C105.543 85.125 105.713 85.0208 105.856 84.8828C106 84.7422 106.11 84.5677 106.188 84.3594L107.079 84.6094C106.985 84.9115 106.828 85.1771 106.606 85.4062C106.385 85.6328 106.112 85.8099 105.786 85.9375C105.461 86.0625 105.095 86.125 104.688 86.125ZM112.825 81.3437L111.997 81.5781C111.945 81.4401 111.868 81.306 111.767 81.1758C111.668 81.043 111.532 80.9336 111.36 80.8477C111.188 80.7617 110.968 80.7187 110.7 80.7187C110.333 80.7187 110.027 80.8034 109.782 80.9727C109.54 81.1393 109.419 81.3516 109.419 81.6094C109.419 81.8385 109.502 82.0195 109.669 82.1523C109.836 82.2852 110.096 82.3958 110.45 82.4844L111.341 82.7031C111.877 82.8333 112.277 83.0326 112.54 83.3008C112.803 83.5664 112.935 83.9089 112.935 84.3281C112.935 84.6719 112.836 84.9792 112.638 85.25C112.442 85.5208 112.169 85.7344 111.817 85.8906C111.466 86.0469 111.057 86.125 110.591 86.125C109.979 86.125 109.472 85.9922 109.071 85.7266C108.67 85.4609 108.416 85.0729 108.31 84.5625L109.185 84.3437C109.268 84.6667 109.425 84.9089 109.657 85.0703C109.892 85.2318 110.198 85.3125 110.575 85.3125C111.005 85.3125 111.346 85.2214 111.599 85.0391C111.854 84.8542 111.981 84.6328 111.981 84.375C111.981 84.1667 111.909 83.9922 111.763 83.8516C111.617 83.7083 111.393 83.6016 111.091 83.5312L110.091 83.2969C109.541 83.1667 109.138 82.9648 108.88 82.6914C108.625 82.4154 108.497 82.0703 108.497 81.6562C108.497 81.3177 108.592 81.0182 108.782 80.7578C108.975 80.4974 109.237 80.293 109.567 80.1445C109.901 79.9961 110.278 79.9219 110.7 79.9219C111.294 79.9219 111.76 80.0521 112.099 80.3125C112.44 80.5729 112.682 80.9167 112.825 81.3437ZM115.119 78V80.75H114.26V78H115.119ZM117.119 78V80.75H116.26V78H117.119ZM82.1084 91V93.75H81.249V91H82.1084ZM84.1084 91V93.75H83.249V91H84.1084ZM89.998 94.3437L89.1699 94.5781C89.1178 94.4401 89.041 94.306 88.9395 94.1758C88.8405 94.043 88.7051 93.9336 88.5332 93.8477C88.3613 93.7617 88.1413 93.7187 87.873 93.7187C87.5059 93.7187 87.1999 93.8034 86.9551 93.9727C86.7129 94.1393 86.5918 94.3516 86.5918 94.6094C86.5918 94.8385 86.6751 95.0195 86.8418 95.1523C87.0085 95.2852 87.2689 95.3958 87.623 95.4844L88.5137 95.7031C89.0501 95.8333 89.4499 96.0326 89.7129 96.3008C89.9759 96.5664 90.1074 96.9089 90.1074 97.3281C90.1074 97.6719 90.0085 97.9792 89.8105 98.25C89.6152 98.5208 89.3418 98.7344 88.9902 98.8906C88.6387 99.0469 88.2298 99.125 87.7637 99.125C87.1517 99.125 86.6452 98.9922 86.2441 98.7266C85.8431 98.4609 85.5892 98.0729 85.4824 97.5625L86.3574 97.3437C86.4408 97.6667 86.5983 97.9089 86.8301 98.0703C87.0645 98.2318 87.3704 98.3125 87.748 98.3125C88.1777 98.3125 88.5189 98.2214 88.7715 98.0391C89.0267 97.8542 89.1543 97.6328 89.1543 97.375C89.1543 97.1667 89.0814 96.9922 88.9355 96.8516C88.7897 96.7083 88.5658 96.6016 88.2637 96.5312L87.2637 96.2969C86.7142 96.1667 86.3105 95.9648 86.0527 95.6914C85.7975 95.4154 85.6699 95.0703 85.6699 94.6562C85.6699 94.3177 85.765 94.0182 85.9551 93.7578C86.1478 93.4974 86.4095 93.293 86.7402 93.1445C87.0736 92.9961 87.4512 92.9219 87.873 92.9219C88.4668 92.9219 88.9329 93.0521 89.2715 93.3125C89.6126 93.5729 89.8548 93.9167 89.998 94.3437ZM96.4014 93L94.1826 99H93.2451L91.0264 93H92.0264L93.6826 97.7812H93.7451L95.4014 93H96.4014ZM98.415 91V93.75H97.5557V91H98.415ZM100.415 91V93.75H99.5557V91H100.415ZM69.0137 104V106.75H68.1543V104H69.0137ZM71.0137 104V106.75H70.1543V104H71.0137ZM77.1533 106C77.1064 105.604 76.9163 105.297 76.583 105.078C76.2497 104.859 75.8408 104.75 75.3564 104.75C75.0023 104.75 74.6924 104.807 74.4268 104.922C74.1637 105.036 73.958 105.194 73.8096 105.395C73.6637 105.595 73.5908 105.823 73.5908 106.078C73.5908 106.292 73.6416 106.475 73.7432 106.629C73.8473 106.78 73.9801 106.906 74.1416 107.008C74.3031 107.107 74.4723 107.189 74.6494 107.254C74.8265 107.316 74.9893 107.367 75.1377 107.406L75.9502 107.625C76.1585 107.68 76.3903 107.755 76.6455 107.852C76.9033 107.948 77.1494 108.079 77.3838 108.246C77.6208 108.41 77.8161 108.621 77.9697 108.879C78.1234 109.137 78.2002 109.453 78.2002 109.828C78.2002 110.26 78.0869 110.651 77.8604 111C77.6364 111.349 77.3083 111.626 76.876 111.832C76.4463 112.038 75.9242 112.141 75.3096 112.141C74.7367 112.141 74.2406 112.048 73.8213 111.863C73.4046 111.678 73.0765 111.421 72.8369 111.09C72.5999 110.759 72.4658 110.375 72.4346 109.938H73.4346C73.4606 110.24 73.5622 110.49 73.7393 110.687C73.9189 110.883 74.1455 111.029 74.4189 111.125C74.695 111.219 74.9919 111.266 75.3096 111.266C75.6794 111.266 76.0114 111.206 76.3057 111.086C76.5999 110.964 76.833 110.794 77.0049 110.578C77.1768 110.359 77.2627 110.104 77.2627 109.812C77.2627 109.547 77.1885 109.331 77.04 109.164C76.8916 108.997 76.6963 108.862 76.4541 108.758C76.2119 108.654 75.9502 108.562 75.6689 108.484L74.6846 108.203C74.0596 108.023 73.5648 107.767 73.2002 107.434C72.8356 107.1 72.6533 106.664 72.6533 106.125C72.6533 105.677 72.7744 105.286 73.0166 104.953C73.2614 104.617 73.5895 104.357 74.001 104.172C74.415 103.984 74.8773 103.891 75.3877 103.891C75.9033 103.891 76.3617 103.983 76.7627 104.168C77.1637 104.35 77.4814 104.6 77.7158 104.918C77.9528 105.236 78.0778 105.596 78.0908 106H77.1533ZM84.5742 106L82.3555 112H81.418L79.1992 106H80.1992L81.8555 110.781H81.918L83.5742 106H84.5742ZM88.0918 112.125C87.5137 112.125 87.015 111.997 86.5957 111.742C86.179 111.484 85.8574 111.125 85.6309 110.664C85.4069 110.201 85.2949 109.661 85.2949 109.047C85.2949 108.432 85.4069 107.891 85.6309 107.422C85.8574 106.951 86.1725 106.583 86.5762 106.32C86.9824 106.055 87.4564 105.922 87.998 105.922C88.3105 105.922 88.6191 105.974 88.9238 106.078C89.2285 106.182 89.5059 106.352 89.7559 106.586C90.0059 106.818 90.2051 107.125 90.3535 107.508C90.502 107.891 90.5762 108.362 90.5762 108.922V109.312H85.9512V108.516H89.6387C89.6387 108.177 89.571 107.875 89.4355 107.609C89.3027 107.344 89.1126 107.134 88.8652 106.98C88.6204 106.827 88.3314 106.75 87.998 106.75C87.6309 106.75 87.3132 106.841 87.0449 107.023C86.7793 107.203 86.5749 107.437 86.4316 107.727C86.2884 108.016 86.2168 108.326 86.2168 108.656V109.188C86.2168 109.641 86.2949 110.025 86.4512 110.34C86.61 110.652 86.8301 110.891 87.1113 111.055C87.3926 111.216 87.7194 111.297 88.0918 111.297C88.334 111.297 88.5527 111.263 88.748 111.195C88.946 111.125 89.1165 111.021 89.2598 110.883C89.403 110.742 89.5137 110.568 89.5918 110.359L90.4824 110.609C90.3887 110.911 90.2311 111.177 90.0098 111.406C89.7884 111.633 89.515 111.81 89.1895 111.937C88.8639 112.063 88.498 112.125 88.0918 112.125ZM92.9004 108.391V112H91.9785V106H92.8691V106.937H92.9473C93.0879 106.633 93.3014 106.388 93.5879 106.203C93.8743 106.016 94.2441 105.922 94.6973 105.922C95.1035 105.922 95.459 106.005 95.7637 106.172C96.0684 106.336 96.3053 106.586 96.4746 106.922C96.6439 107.255 96.7285 107.677 96.7285 108.188V112H95.8066V108.25C95.8066 107.779 95.6842 107.411 95.4395 107.148C95.1947 106.883 94.8587 106.75 94.4316 106.75C94.1374 106.75 93.8743 106.814 93.6426 106.941C93.4134 107.069 93.2324 107.255 93.0996 107.5C92.9668 107.745 92.9004 108.042 92.9004 108.391ZM102.663 107.344L101.835 107.578C101.783 107.44 101.706 107.306 101.604 107.176C101.506 107.043 101.37 106.934 101.198 106.848C101.026 106.762 100.806 106.719 100.538 106.719C100.171 106.719 99.8649 106.803 99.6201 106.973C99.3779 107.139 99.2568 107.352 99.2568 107.609C99.2568 107.839 99.3402 108.02 99.5068 108.152C99.6735 108.285 99.9339 108.396 100.288 108.484L101.179 108.703C101.715 108.833 102.115 109.033 102.378 109.301C102.641 109.566 102.772 109.909 102.772 110.328C102.772 110.672 102.674 110.979 102.476 111.25C102.28 111.521 102.007 111.734 101.655 111.891C101.304 112.047 100.895 112.125 100.429 112.125C99.8167 112.125 99.3102 111.992 98.9092 111.727C98.5081 111.461 98.2542 111.073 98.1475 110.562L99.0225 110.344C99.1058 110.667 99.2633 110.909 99.4951 111.07C99.7295 111.232 100.035 111.312 100.413 111.312C100.843 111.312 101.184 111.221 101.437 111.039C101.692 110.854 101.819 110.633 101.819 110.375C101.819 110.167 101.746 109.992 101.601 109.852C101.455 109.708 101.231 109.602 100.929 109.531L99.9287 109.297C99.3792 109.167 98.9756 108.965 98.7178 108.691C98.4626 108.415 98.335 108.07 98.335 107.656C98.335 107.318 98.43 107.018 98.6201 106.758C98.8128 106.497 99.0745 106.293 99.4053 106.145C99.7386 105.996 100.116 105.922 100.538 105.922C101.132 105.922 101.598 106.052 101.937 106.312C102.278 106.573 102.52 106.917 102.663 107.344ZM105.02 109.812L105.004 108.672H105.191L107.816 106H108.957L106.16 108.828H106.082L105.02 109.812ZM104.16 112V104H105.082V112H104.16ZM107.973 112L105.629 109.031L106.285 108.391L109.145 112H107.973ZM111.909 112.141C111.529 112.141 111.184 112.069 110.874 111.926C110.564 111.78 110.318 111.57 110.136 111.297C109.953 111.021 109.862 110.687 109.862 110.297C109.862 109.953 109.93 109.674 110.065 109.461C110.201 109.245 110.382 109.076 110.608 108.953C110.835 108.831 111.085 108.74 111.358 108.68C111.634 108.617 111.912 108.568 112.19 108.531C112.555 108.484 112.851 108.449 113.077 108.426C113.306 108.4 113.473 108.357 113.577 108.297C113.684 108.237 113.737 108.133 113.737 107.984V107.953C113.737 107.568 113.632 107.268 113.421 107.055C113.213 106.841 112.896 106.734 112.472 106.734C112.032 106.734 111.687 106.831 111.437 107.023C111.187 107.216 111.011 107.422 110.909 107.641L110.034 107.328C110.19 106.964 110.399 106.68 110.659 106.477C110.922 106.271 111.209 106.128 111.519 106.047C111.831 105.964 112.138 105.922 112.44 105.922C112.633 105.922 112.854 105.945 113.104 105.992C113.357 106.036 113.601 106.129 113.835 106.27C114.072 106.41 114.269 106.622 114.425 106.906C114.581 107.19 114.659 107.57 114.659 108.047V112H113.737V111.187H113.69C113.628 111.318 113.524 111.457 113.378 111.605C113.232 111.754 113.038 111.88 112.796 111.984C112.554 112.089 112.258 112.141 111.909 112.141ZM112.05 111.312C112.414 111.312 112.722 111.241 112.972 111.098C113.224 110.954 113.414 110.77 113.542 110.543C113.672 110.316 113.737 110.078 113.737 109.828V108.984C113.698 109.031 113.612 109.074 113.479 109.113C113.349 109.15 113.198 109.182 113.026 109.211C112.857 109.237 112.692 109.26 112.53 109.281C112.371 109.299 112.243 109.315 112.144 109.328C111.904 109.359 111.68 109.41 111.472 109.48C111.266 109.548 111.099 109.651 110.972 109.789C110.847 109.924 110.784 110.109 110.784 110.344C110.784 110.664 110.903 110.906 111.14 111.07C111.379 111.232 111.683 111.312 112.05 111.312ZM117.139 104V106.75H116.279V104H117.139ZM119.139 104V106.75H118.279V104H119.139Z" fill="#E07155"/>
</svg>
